<svg width="602" height="381" viewBox="0 0 602 381" fill="none" xmlns="http://www.w3.org/2000/svg">
<path d="M584.423 147.96C592.193 194.553 568.235 228.186 518.333 256.463C471.522 282.991 428.289 287.678 393.353 261.379C356.772 233.819 345.299 184.726 360.484 135.161C375.329 86.5444 432.493 62.9138 483.648 69.981C534.802 77.0482 578.214 110.619 584.423 147.96Z" fill="#FFF4E1"/>
<path d="M20.5755 222.579C19.3204 180.57 50.3991 123.211 120.17 113.73C189.942 104.248 268.811 139.758 287.753 165.04C312.079 197.557 315.386 241.244 280.079 287.527C246.291 331.766 153.59 356.751 95.8122 330.279C38.0341 303.808 22.12 273.808 20.5755 222.579Z" fill="#FFF4E1"/>
<path d="M200.8 237.65C200.999 237.632 201.188 237.554 201.341 237.426C201.495 237.299 201.607 237.128 201.662 236.936C207.683 220.091 204.583 207.345 196.77 207.304C187.486 207.271 189.579 218.337 189.579 218.337C188.795 217.022 187.531 216.064 186.054 215.664C184.576 215.265 183.002 215.456 181.663 216.197C176.601 218.815 177.838 228.507 185.526 233.488C190.084 236.378 195.406 237.828 200.8 237.65Z" fill="#E2C7DF"/>
<path d="M35.2843 263.965C35.158 263.92 35.0488 263.838 34.9721 263.728C34.8953 263.618 34.8549 263.487 34.8564 263.353C34.8579 263.22 34.9014 263.09 34.9806 262.982C35.0599 262.874 35.171 262.794 35.2982 262.752C53.0553 261.352 78.472 258.641 98.6396 253.589L99.0387 253.483C121.534 247.866 137.141 241.816 145.43 235.508C152.64 230.025 164.956 219.804 166.467 212.941C167.066 210.149 163.676 209.222 163.534 209.183C163.412 209.155 163.302 209.089 163.218 208.996C163.135 208.903 163.081 208.787 163.065 208.662C163.05 208.539 163.07 208.414 163.122 208.301C163.174 208.189 163.257 208.093 163.361 208.025C166.166 206.343 171.33 199.73 170.923 195.731C170.857 194.707 170.431 193.739 169.719 193C169.007 192.261 168.056 191.798 167.035 191.694C166.916 191.683 166.802 191.64 166.706 191.568C166.611 191.496 166.537 191.398 166.494 191.287C166.452 191.17 166.445 191.044 166.475 190.924C166.504 190.804 166.569 190.695 166.66 190.612C166.66 190.612 170.93 186.457 169.864 182.015C168.852 177.76 164.042 178.145 163.834 178.161C163.734 178.174 163.632 178.161 163.538 178.124C163.444 178.087 163.361 178.026 163.297 177.948C163.227 177.875 163.178 177.785 163.154 177.686C163.129 177.588 163.132 177.485 163.16 177.388C163.419 176.479 163.448 175.52 163.245 174.597C163.042 173.673 162.614 172.815 161.997 172.098C160.69 170.751 158.648 170.18 156.08 170.599C151.897 171.266 145.761 176.579 141.668 180.06C140.478 181.158 139.219 182.177 137.898 183.113C132.725 186.229 114.412 191.555 113.624 191.778C113.48 191.817 113.327 191.803 113.191 191.741C113.056 191.678 112.946 191.57 112.882 191.436C112.818 191.301 112.803 191.148 112.84 191.003C112.877 190.858 112.963 190.731 113.084 190.643C113.215 190.547 126.601 181.03 129.851 178.192C133.102 175.354 135.02 170.219 132.801 167.08C130.798 164.218 123.343 168.171 113.899 173.184L111.337 174.502C106.303 177.35 101.427 180.47 96.7304 183.846C88.7034 189.368 80.4034 195.068 74.1398 196.616C64.8994 198.907 34.7009 201.604 13.4952 200.506C13.3298 200.49 13.1764 200.412 13.0654 200.289C12.9543 200.165 12.8937 200.004 12.8954 199.838C12.9058 199.67 12.9816 199.514 13.1066 199.401C13.2315 199.289 13.3955 199.231 13.5633 199.238C34.6609 200.326 64.7103 197.661 73.8401 195.384C79.9174 193.877 88.1633 188.232 96.0014 182.777C100.739 179.369 105.659 176.222 110.738 173.348L113.301 172.018C124.079 166.303 131.26 162.541 133.839 166.311C136.418 170.082 134.303 175.961 130.692 179.115C128.347 181.171 121.124 186.422 116.914 189.393C122.663 187.647 133.578 184.167 137.239 181.953C138.49 181.048 139.687 180.071 140.826 179.028C145.017 175.411 151.338 169.959 155.879 169.231C158.841 168.755 161.346 169.434 162.966 171.165C163.643 171.923 164.139 172.823 164.418 173.8C164.697 174.776 164.752 175.803 164.579 176.804C166.062 176.742 167.522 177.189 168.717 178.07C169.912 178.95 170.771 180.213 171.152 181.648C172.079 185.542 169.683 189.049 168.36 190.602C169.431 190.935 170.375 191.584 171.069 192.466C171.762 193.347 172.171 194.418 172.241 195.537C172.665 199.732 168.224 205.8 165.078 208.333C166.018 208.692 166.802 209.372 167.292 210.252C167.782 211.132 167.947 212.156 167.757 213.145C166.17 220.401 153.611 230.864 146.257 236.454C137.822 242.881 122.063 248.988 99.4058 254.65L98.9946 254.754C78.7525 259.823 53.2853 262.553 35.4549 263.958L35.2843 263.965Z" fill="#DDA450"/>
<path d="M100.493 224.472C100.331 224.455 100.182 224.374 100.079 224.248C100.024 224.184 99.9834 224.11 99.9583 224.031C99.9332 223.951 99.9246 223.867 99.9331 223.784C99.9416 223.7 99.9669 223.62 100.007 223.547C100.048 223.474 100.103 223.41 100.169 223.358C105.756 218.56 109.492 207.832 110.164 194.644C110.168 194.56 110.188 194.478 110.224 194.403C110.26 194.327 110.31 194.259 110.372 194.203C110.434 194.148 110.507 194.105 110.586 194.077C110.665 194.05 110.749 194.039 110.832 194.044C111 194.054 111.157 194.13 111.269 194.255C111.381 194.38 111.44 194.544 111.432 194.712C110.447 214.205 103.818 221.86 100.995 224.316C100.927 224.377 100.847 224.422 100.761 224.449C100.674 224.476 100.583 224.484 100.493 224.472Z" fill="#DDA450"/>
<path d="M119.59 203.08C119.48 203.069 119.374 203.031 119.283 202.969C119.191 202.906 119.117 202.822 119.068 202.723C118.999 202.569 118.994 202.395 119.053 202.237C119.112 202.08 119.231 201.952 119.384 201.881C121.392 200.871 124.707 199.666 128.242 198.338C134.859 195.818 143.092 192.684 144.852 190.775L146.03 189.462C149.475 185.539 155.912 178.23 163.664 176.844C163.829 176.816 163.999 176.854 164.137 176.949C164.275 177.045 164.37 177.191 164.401 177.356C164.417 177.438 164.416 177.523 164.398 177.604C164.381 177.686 164.348 177.764 164.3 177.832C164.252 177.901 164.191 177.959 164.121 178.004C164.05 178.049 163.971 178.079 163.889 178.093C156.568 179.413 150.326 186.488 146.977 190.299C146.524 190.812 146.125 191.269 145.785 191.635C143.82 193.766 135.789 196.822 128.691 199.525C125.195 200.845 121.897 202.112 119.935 203.03C119.826 203.077 119.707 203.094 119.59 203.08Z" fill="#DDA450"/>
<path d="M122.48 215.379C122.368 215.369 122.261 215.329 122.17 215.265C122.078 215.2 122.006 215.113 121.959 215.011C121.924 214.934 121.904 214.852 121.902 214.767C121.899 214.683 121.914 214.599 121.945 214.521C121.975 214.443 122.021 214.371 122.08 214.311C122.139 214.251 122.209 214.203 122.287 214.17C123.38 213.686 125.234 213.001 127.343 212.195C133.511 209.921 142.819 206.484 146.123 203.36C146.727 202.79 147.401 202.13 148.131 201.403C152.949 196.636 160.273 189.429 167.134 190.369C167.217 190.38 167.297 190.408 167.37 190.451C167.442 190.493 167.506 190.55 167.556 190.617C167.607 190.684 167.644 190.761 167.665 190.842C167.686 190.924 167.691 191.008 167.679 191.092C167.675 191.176 167.652 191.259 167.612 191.334C167.572 191.409 167.517 191.474 167.449 191.525C167.381 191.576 167.303 191.611 167.22 191.629C167.138 191.646 167.052 191.646 166.969 191.627L166.729 191.602C160.505 190.97 153.621 197.785 149.046 202.309C148.317 203.036 147.689 203.713 147.024 204.289C143.534 207.576 134.073 211.082 127.804 213.395C125.685 214.176 123.843 214.862 122.754 215.31C122.669 215.356 122.575 215.379 122.48 215.379Z" fill="#DDA450"/>
<path d="M126.344 227.645C126.225 227.63 126.112 227.582 126.019 227.506C125.926 227.43 125.856 227.329 125.817 227.215C125.788 227.137 125.776 227.055 125.78 226.972C125.783 226.889 125.804 226.808 125.84 226.734C125.876 226.659 125.926 226.593 125.989 226.538C126.051 226.484 126.123 226.442 126.202 226.416C139.699 221.657 143.909 219.414 145.107 218.371L146.447 217.135C150.606 213.357 156.893 207.635 163.703 207.878C163.786 207.879 163.868 207.898 163.944 207.932C164.02 207.967 164.088 208.016 164.144 208.077C164.2 208.138 164.243 208.21 164.271 208.289C164.298 208.367 164.31 208.451 164.304 208.533C164.297 208.701 164.224 208.86 164.102 208.975C163.979 209.089 163.815 209.151 163.647 209.146C157.358 208.92 151.31 214.436 147.299 218.071L145.958 219.319C144.09 220.974 137.769 223.683 126.626 227.613C126.535 227.641 126.439 227.652 126.344 227.645Z" fill="#DDA450"/>
<path d="M94.4914 336.349C94.3348 336.329 94.1908 336.252 94.0873 336.133C93.9837 336.014 93.9278 335.861 93.9303 335.703C93.9327 335.545 93.9935 335.394 94.1007 335.278C94.208 335.162 94.3543 335.09 94.5115 335.076C119.834 333.291 167.483 319.425 182.869 311.968C197.947 304.675 215.074 290.84 216.428 281.217C216.578 280.692 216.593 280.137 216.471 279.605C216.349 279.072 216.094 278.579 215.73 278.172C214.61 277.245 212.327 277.729 211.548 277.99C211.417 278.035 211.274 278.036 211.142 277.992C211.011 277.948 210.897 277.861 210.82 277.746C210.749 277.626 210.719 277.487 210.733 277.349C210.747 277.21 210.805 277.08 210.898 276.977C213.824 273.632 221.963 261.992 221.323 258.613C220.683 255.233 216.408 255.843 216.235 255.874C216.114 255.889 215.991 255.869 215.88 255.817C215.77 255.765 215.676 255.683 215.61 255.58C215.542 255.477 215.507 255.356 215.508 255.233C215.51 255.11 215.549 254.99 215.619 254.889C220.981 246.681 220.555 239.524 218.213 237.72C215.872 235.916 211.224 237.568 211.186 237.588C211.066 237.637 210.934 237.647 210.809 237.617C210.684 237.587 210.571 237.518 210.486 237.42C210.4 237.325 210.345 237.206 210.328 237.078C210.31 236.951 210.332 236.821 210.389 236.706C211.165 235.158 211.979 231.211 210.311 229.111C209.169 227.684 207.069 227.325 204.046 228.05C197.463 229.627 193.034 236.06 189.801 240.757C188.802 242.392 187.609 243.902 186.249 245.252C182.557 248.252 175.298 253.742 171.442 255.256C167.585 256.77 162.014 259.154 161.966 259.149C161.83 259.209 161.678 259.22 161.535 259.179C161.393 259.138 161.27 259.048 161.187 258.924C161.105 258.799 161.069 258.65 161.084 258.501C161.099 258.352 161.165 258.213 161.27 258.107C169.674 250.075 179.498 239.407 179.541 235.757C179.55 235.18 179.417 234.61 179.154 234.096C178.89 233.583 178.505 233.142 178.032 232.812C176.905 231.957 174.157 230.803 168.651 232.538C165.239 233.624 156.72 240.285 147.717 247.407C136.137 256.476 123.014 266.748 115.8 269.172C104.123 273.096 61.74 276.595 38.8264 277.132C38.7437 277.136 38.6611 277.122 38.5837 277.093C38.5062 277.064 38.4354 277.02 38.3755 276.963C38.3156 276.906 38.2678 276.837 38.2349 276.761C38.2021 276.685 38.1849 276.603 38.1844 276.521C38.1809 276.437 38.1941 276.354 38.2231 276.276C38.2522 276.198 38.2965 276.126 38.3536 276.065C38.4106 276.004 38.4792 275.955 38.5554 275.921C38.6315 275.887 38.7137 275.869 38.7971 275.867C64.7839 275.193 104.795 271.501 115.41 267.869C122.41 265.522 135.439 255.337 146.942 246.308C156.439 238.873 164.654 232.448 168.28 231.299C172.757 229.884 176.504 230.046 178.808 231.749C179.442 232.202 179.957 232.802 180.309 233.497C180.661 234.193 180.84 234.963 180.83 235.742C180.776 240.095 170.321 250.99 164.587 256.648C166.514 255.848 168.997 254.825 170.995 254.033C174.702 252.564 182.08 246.977 185.467 244.226C186.719 242.935 187.828 241.514 188.775 239.985C192.122 235.117 196.709 228.445 203.764 226.758C207.311 225.905 209.869 226.408 211.319 228.267C212.955 230.327 212.775 233.659 212.044 235.952C213.8 235.511 216.991 235.058 219.013 236.66C222.086 239.036 222.074 246.683 217.345 254.506C219.38 254.555 222.109 255.415 222.589 258.341C223.321 262.239 216.03 272.472 212.996 276.401C214.24 276.184 215.519 276.462 216.559 277.176C217.589 278.033 217.98 279.445 217.71 281.384C216.134 292.598 196.723 306.687 183.445 313.107C167.985 320.581 120.066 334.589 94.626 336.338L94.4914 336.349Z" fill="#DDA450"/>
<path d="M146.212 264.25C146.082 264.213 145.966 264.136 145.882 264.03C145.797 263.923 145.749 263.793 145.744 263.657C145.739 263.521 145.777 263.388 145.853 263.275C145.929 263.163 146.039 263.077 146.166 263.031C151.11 262.161 161.338 258.041 161.439 258.003C161.589 257.964 161.749 257.981 161.888 258.051C162.027 258.121 162.136 258.239 162.194 258.383C162.252 258.527 162.256 258.687 162.204 258.834C162.153 258.981 162.05 259.104 161.914 259.18C161.496 259.356 151.482 263.401 146.391 264.28L146.212 264.25Z" fill="#DDA450"/>
<path d="M174.274 276.849C174.172 276.838 174.074 276.803 173.989 276.745C173.903 276.688 173.834 276.611 173.785 276.52C173.708 276.372 173.691 276.201 173.737 276.041C173.782 275.881 173.888 275.744 174.031 275.659C179.368 272.717 192.69 262.987 197.451 257.705C201.687 253.06 203.686 249.27 208.538 240.112L210.358 236.655C210.44 236.507 210.576 236.398 210.737 236.348C210.898 236.299 211.072 236.314 211.223 236.39C211.372 236.47 211.484 236.606 211.533 236.768C211.583 236.93 211.566 237.105 211.487 237.255L209.655 240.711C204.761 249.925 202.729 253.798 198.396 258.565C193.395 264.054 180.059 273.795 174.692 276.794C174.565 276.866 174.415 276.885 174.274 276.849Z" fill="#DDA450"/>
<path d="M181.852 288.411C181.751 288.399 181.655 288.364 181.57 288.309C181.485 288.254 181.414 288.181 181.362 288.094C181.319 288.023 181.291 287.944 181.279 287.862C181.268 287.78 181.272 287.697 181.293 287.616C181.313 287.536 181.35 287.461 181.399 287.394C181.449 287.328 181.512 287.273 181.583 287.231C186.756 284.114 201.732 274.601 204.767 270.77C205.284 270.106 205.77 269.5 206.241 268.929C208.74 265.844 210.711 263.41 215.559 254.883C215.601 254.807 215.657 254.741 215.725 254.687C215.793 254.634 215.87 254.594 215.953 254.57C216.036 254.546 216.123 254.539 216.209 254.549C216.295 254.559 216.378 254.586 216.453 254.628C216.529 254.67 216.595 254.726 216.649 254.794C216.702 254.861 216.742 254.939 216.766 255.022C216.789 255.105 216.797 255.192 216.787 255.277C216.777 255.363 216.75 255.446 216.708 255.522C211.803 264.128 209.804 266.596 207.265 269.725C206.805 270.309 206.326 270.843 205.792 271.554C202.418 275.848 186.112 286.028 182.238 288.317C182.123 288.39 181.987 288.423 181.852 288.411Z" fill="#DDA450"/>
<path d="M181.579 301.725C181.448 301.697 181.327 301.632 181.233 301.536C181.138 301.441 181.073 301.32 181.047 301.188C181.02 301.056 181.032 300.919 181.083 300.794C181.133 300.67 181.219 300.562 181.329 300.486C181.413 300.494 189.956 295.984 193.688 293.79C200.408 289.319 206.279 283.688 211.026 277.16C211.134 277.013 211.296 276.916 211.476 276.888C211.657 276.861 211.84 276.907 211.987 277.015C212.129 277.127 212.222 277.289 212.247 277.468C212.272 277.647 212.226 277.829 212.12 277.975C206.159 285.989 198.746 292.398 194.37 294.964C190.613 297.168 182.048 301.651 181.958 301.703C181.837 301.746 181.705 301.754 181.579 301.725Z" fill="#DDA450"/>
<path d="M157.804 279.436C156.434 279.276 155.162 278.64 154.212 277.639C153.718 277.146 153.437 276.48 153.428 275.783C153.42 275.085 153.684 274.412 154.166 273.907C155.702 271.927 159.158 270.773 161.502 272.079C162.729 272.787 163.856 274.236 162.367 277.181C162.049 277.784 161.59 278.301 161.028 278.688C160.467 279.074 159.82 279.32 159.143 279.403C158.7 279.469 158.25 279.48 157.804 279.436ZM159.693 272.794C158.856 272.745 158.018 272.891 157.246 273.219C156.474 273.547 155.787 274.048 155.24 274.684C154.626 275.472 154.603 276.173 155.176 276.754C155.655 277.279 156.255 277.681 156.924 277.924C157.592 278.168 158.31 278.246 159.015 278.151C159.491 278.097 159.947 277.928 160.344 277.66C160.741 277.392 161.068 277.032 161.296 276.611C162.406 274.417 161.731 273.644 160.928 273.186C160.522 272.949 160.066 272.811 159.597 272.784L159.693 272.794Z" fill="#DDA450"/>
<path d="M166.146 291.61C165.774 291.574 165.407 291.496 165.052 291.378C164.199 291.167 163.461 290.633 162.996 289.887C162.53 289.142 162.372 288.245 162.557 287.385C162.802 286.498 163.385 285.741 164.18 285.278C164.976 284.814 165.922 284.68 166.815 284.904C167.424 284.94 168.019 285.107 168.558 285.395C169.096 285.682 169.566 286.083 169.936 286.569C170.16 286.961 170.293 287.399 170.325 287.85C170.357 288.301 170.287 288.753 170.12 289.174C169.99 289.611 169.772 290.017 169.48 290.367C169.187 290.717 168.827 291.004 168.42 291.21C167.719 291.567 166.927 291.707 166.146 291.61ZM166.386 286.136C165.838 286.016 165.264 286.111 164.783 286.4C164.302 286.69 163.951 287.153 163.8 287.694C163.69 288.239 163.802 288.806 164.11 289.27C164.418 289.734 164.897 290.056 165.442 290.167C165.833 290.32 166.25 290.392 166.669 290.378C167.088 290.364 167.499 290.265 167.879 290.087C168.135 289.957 168.362 289.776 168.546 289.554C168.729 289.333 168.865 289.076 168.944 288.799C169.052 288.552 169.103 288.284 169.095 288.014C169.087 287.745 169.019 287.48 168.896 287.24C168.613 286.92 168.268 286.659 167.883 286.474C167.497 286.289 167.078 286.183 166.651 286.162L166.386 286.136Z" fill="#DDA450"/>
<path d="M168.502 303.067L168.082 303.024C167.467 302.909 166.913 302.58 166.517 302.096C166.122 301.611 165.911 301.002 165.923 300.377C166.045 299.175 166.969 297.849 169.518 297.61L169.898 297.576C171.198 297.441 172.671 297.287 173.267 298.829C173.465 299.285 173.532 299.789 173.458 300.282C173.384 300.774 173.174 301.236 172.85 301.615C172.272 302.154 171.584 302.563 170.834 302.814C170.084 303.064 169.288 303.151 168.502 303.067ZM169.688 298.805C168.205 298.946 167.283 299.532 167.232 300.389C167.239 300.698 167.349 300.996 167.545 301.236C167.74 301.476 168.01 301.643 168.312 301.712C168.948 301.813 169.6 301.772 170.218 301.592C170.837 301.411 171.408 301.095 171.89 300.668C172.063 300.459 172.17 300.204 172.198 299.934C172.225 299.664 172.171 299.393 172.044 299.154C171.833 298.598 171.437 298.558 169.988 298.714L169.688 298.805Z" fill="#DDA450"/>
<path d="M173.402 311.589C172.555 311.53 171.743 311.229 171.063 310.72C170.852 310.563 170.699 310.341 170.626 310.088C170.553 309.835 170.564 309.565 170.659 309.32C171.117 308.152 173.56 307.296 175.421 307.375C176.033 307.31 176.651 307.446 177.179 307.763C177.707 308.079 178.119 308.559 178.35 309.13C178.442 309.46 178.416 309.811 178.278 310.125C178.14 310.438 177.898 310.694 177.593 310.85C176.306 311.524 174.842 311.782 173.402 311.589ZM175.62 308.646L175.175 308.601C173.94 308.521 172.723 308.934 171.793 309.75C172.86 310.599 175.737 310.479 176.842 309.754C176.842 309.754 177.105 309.562 177.077 309.474C176.893 308.897 176.196 308.705 175.62 308.646Z" fill="#DDA450"/>
<path d="M320.894 96.1152C320.772 96.3056 320.595 96.4543 320.387 96.5416C320.178 96.6289 319.948 96.6505 319.727 96.6037C299.899 93.6543 288.95 83.8497 293.049 76.1205C297.931 66.9048 307.744 74.87 307.744 74.87C307.744 74.87 304.534 69.5423 309.807 65.9142C315.08 62.286 323.987 68.6539 324.854 78.8787C325.29 84.8912 323.91 90.896 320.894 96.1152Z" fill="#AA7BA5"/>
<path d="M223.222 59.7506C223.039 59.7533 222.86 59.8117 222.711 59.9178C222.561 60.024 222.448 60.1731 222.385 60.3454C215.725 75.3532 217.698 87.2321 224.842 87.7759C233.274 88.4262 232.143 78.1626 232.143 78.1626C232.77 79.421 233.861 80.3863 235.187 80.8541C236.512 81.3218 237.968 81.2554 239.245 80.6687C244.055 78.6202 243.581 69.6615 236.886 64.5866C232.919 61.6411 228.158 59.9562 223.222 59.7506Z" fill="#AA7BA5"/>
<path d="M312.498 74.4425C312.689 74.3863 312.858 74.274 312.984 74.12C313.11 73.9661 313.187 73.7778 313.205 73.5796C315.834 56.0621 310.368 44.2654 302.789 45.7411C293.749 47.4933 297.917 57.8471 297.917 57.8471C296.905 56.72 295.495 56.0296 293.984 55.9214C292.474 55.8131 290.98 56.2956 289.818 57.267C285.393 60.7871 288.527 69.9675 296.878 73.3289C301.856 75.2549 307.297 75.6429 312.498 74.4425Z" fill="#AA7BA5"/>
<path d="M372.984 91.5868C372.862 91.7727 372.686 91.9177 372.481 92.0028C372.275 92.088 372.049 92.1095 371.831 92.0644C352.218 89.149 341.391 79.454 345.445 71.8173C350.277 62.73 359.98 70.5869 359.98 70.5869C359.98 70.5869 356.801 65.311 362.009 61.7248C367.217 58.1386 376.041 64.3645 376.889 74.5388C377.322 80.4842 375.962 86.4227 372.984 91.5868Z" fill="#AA7BA5"/>
<path d="M309.022 67.7888C309.012 67.5077 309.087 67.23 309.236 66.9919C309.386 66.7538 309.604 66.5663 309.862 66.4538C332.269 55.134 350.556 57.235 351.941 68.0951C353.601 81.0347 341.117 80.2397 341.117 80.2397C341.117 80.2397 344.963 83.1312 342.197 90.6438C339.43 98.1564 325.717 98.1106 317.442 88.2742C312.648 82.4422 309.715 75.306 309.022 67.7888Z" fill="#AA7BA5"/>
<path d="M238.485 72.2637C238.341 72.3795 238.236 72.5353 238.181 72.7113C238.127 72.8873 238.125 73.0756 238.178 73.2523C242.068 89.2106 250.876 97.3894 256.82 93.4895C263.959 88.8248 257.74 81.8075 257.74 81.8075C257.74 81.8075 261.342 83.6303 263.895 79.058C266.447 74.4858 260.618 67.7022 252.211 67.7585C247.29 67.863 242.511 69.4314 238.485 72.2637Z" fill="#AA7BA5"/>
<path d="M244.918 88.286C244.774 88.4019 244.669 88.5577 244.614 88.7337C244.559 88.9097 244.558 89.0979 244.611 89.2746C248.501 105.233 257.306 113.436 263.301 109.517C270.441 104.84 263.218 97.4293 263.218 97.4293C264.482 98.045 265.936 98.1447 267.272 97.7071C268.608 97.2696 269.721 96.3293 270.376 95.0852C272.931 90.489 267.086 83.7282 258.68 83.7845C253.745 83.8741 248.951 85.4422 244.918 88.286Z" fill="#D89ACC"/>
<path d="M341.527 69.9867C341.403 70.1747 341.226 70.3215 341.019 70.4084C340.811 70.4954 340.582 70.5187 340.361 70.4752C320.522 67.5126 309.572 57.72 313.671 49.9908C318.565 40.7763 328.366 48.7403 328.366 48.7403C328.366 48.7403 325.156 43.4126 330.417 39.7833C335.678 36.1539 344.604 42.5723 345.476 52.749C345.91 58.7602 344.535 64.7637 341.527 69.9867Z" fill="#AA7BA5"/>
<path d="M381.355 76.583C381.252 76.7371 381.105 76.8573 380.934 76.9284C380.763 76.9996 380.574 77.0185 380.392 76.9829C364.152 74.568 355.184 66.5307 358.547 60.1956C362.541 52.6621 370.584 59.1728 370.584 59.1728C369.859 57.9715 369.628 56.5353 369.942 55.1674C370.255 53.7995 371.088 52.6068 372.264 51.8412C376.583 48.8809 383.885 54.0781 384.54 62.4482C384.917 67.3723 383.807 72.2963 381.355 76.583Z" fill="#AA7BA5"/>
<path d="M223.697 96.8977C223.846 96.7903 223.959 96.6385 224.018 96.4637C224.077 96.289 224.08 96.1001 224.026 95.9236C220.57 79.8758 211.972 71.427 205.873 75.1776C198.608 79.6474 205.613 87.2909 205.613 87.2909C204.366 86.644 202.917 86.5072 201.571 86.9097C200.225 87.3121 199.089 88.2222 198.402 89.4474C195.712 93.9329 201.366 100.893 209.774 101.067C214.729 101.111 219.581 99.658 223.697 96.8977Z" fill="#AA7BA5"/>
<path d="M279.587 53.7751C279.418 53.7012 279.231 53.6796 279.051 53.7132C278.87 53.7468 278.703 53.8339 278.572 53.9634C266.177 64.7223 262.947 76.3153 269.156 79.8476C276.572 84.0487 279.85 74.2451 279.85 74.2451C279.887 75.6482 280.466 76.9822 281.467 77.9667C282.467 78.9513 283.81 79.5097 285.213 79.5246C290.44 79.7036 293.809 71.3903 289.903 63.9524C287.555 59.6079 283.963 56.0639 279.587 53.7751Z" fill="#AA7BA5"/>
<path d="M189.136 80.6396C188.897 80.6373 188.664 80.5685 188.462 80.4407C188.261 80.313 188.099 80.1315 187.995 79.9167C179.473 63.0749 182.332 50.9465 191.815 51.0481C201.298 51.1497 198.445 62.1377 198.445 62.1377C198.445 62.1377 204.427 56.6756 210.756 59.3824C217.085 62.0892 216.28 71.6828 207.306 76.6101C201.694 79.4884 195.438 80.876 189.136 80.6396Z" fill="#D89ACC"/>
<path d="M239.784 97.4763C239.657 97.6708 239.476 97.8246 239.264 97.9194C239.052 98.0141 238.818 98.0457 238.588 98.0104C219.808 96.1021 211.169 87.0908 216.381 79.1711C221.592 71.2514 229.291 79.5966 229.291 79.5966C229.291 79.5966 227.998 71.6473 233.65 67.7542C239.302 63.8611 246.98 69.7763 246.261 79.9613C245.647 86.2601 243.415 92.2933 239.784 97.4763Z" fill="#D89ACC"/>
<path d="M337.368 63.1303C337.354 63.3472 337.406 63.5633 337.517 63.7501C337.628 63.9369 337.793 64.0857 337.99 64.1768C355.091 73.4167 369.295 72.2135 370.601 63.7876C372.148 53.8203 359.913 54.2767 359.913 54.2767C359.913 54.2767 365.509 52.0047 363.519 46.1454C361.529 40.286 350.934 40.0108 344.314 47.4596C340.484 51.8712 338.065 57.3297 337.368 63.1303Z" fill="#D89ACC"/>
<path d="M313.583 73.2052C293.075 63.3277 283.016 63.3983 280.359 68.397C276.178 76.3363 286.482 78.3909 286.482 78.3909C286.482 78.3909 278.786 83.3996 283.608 89.4738C287.029 93.7912 295.314 93.7346 302.335 86.2901C307.06 81.2466 313.583 73.2052 313.583 73.2052Z" fill="#D89ACC"/>
<path d="M270.635 59.6758C270.62 59.6086 270.58 59.5496 270.523 59.5102C270.467 59.4708 270.398 59.4538 270.329 59.4626C251.219 61.5149 244.441 69.6761 247.271 74.8073C250.1 79.9385 260.692 73.1846 260.692 73.1846C260.692 73.1846 257.381 81.8801 263.582 83.3357C270.105 84.8483 272.405 80.129 273.01 76.0872C273.605 72.3844 271.004 61.425 270.635 59.6758Z" fill="#D89ACC"/>
<path d="M380.654 87.7895C380.793 87.9081 380.966 87.9815 381.148 88C381.331 88.0186 381.514 87.9813 381.675 87.8933C396.648 81.1596 403.107 70.9994 398.145 65.8215C392.252 59.6627 386.284 68.1004 386.284 68.1004C386.654 66.7501 386.485 65.3089 385.812 64.0809C385.14 62.8529 384.017 61.9342 382.68 61.5186C377.731 59.8019 372.113 66.8304 373.703 75.077C374.697 79.9139 377.119 84.3417 380.654 87.7895Z" fill="#D89ACC"/>
<path d="M307.083 60.4659C307.019 60.4453 306.964 60.4028 306.928 60.346C306.891 60.2891 306.876 60.2213 306.884 60.1543C308.07 42.2716 311.206 38.1714 318.246 39.6151C324.193 40.8263 320.604 50.5741 320.604 50.5741C320.604 50.5741 329.292 47.2686 330.723 53.496C332.222 60.0096 327.491 62.2481 323.469 62.8835C319.757 63.4532 308.837 60.8869 307.083 60.4659Z" fill="#D89ACC"/>
<path d="M350.182 98.9089C350.059 99.0466 349.896 99.1433 349.716 99.1857C349.536 99.2282 349.347 99.2145 349.175 99.1464C333.533 94.1823 325.949 84.829 330.269 79.1131C335.411 72.3517 342.317 80.0215 342.317 80.0215C341.785 78.7159 341.783 77.2542 342.313 75.9476C342.842 74.641 343.861 73.5926 345.152 73.0258C349.883 70.7872 356.26 77.0802 355.627 85.465C355.198 90.3903 353.302 95.0735 350.182 98.9089Z" fill="#D89ACC"/>
<path d="M208.308 87.1765C208.141 87.1013 207.955 87.0779 207.774 87.1093C207.594 87.1407 207.427 87.2255 207.295 87.3527C194.898 98.1236 191.669 109.717 197.878 113.237C205.294 117.438 208.572 107.634 208.572 107.634C208.606 109.038 209.185 110.374 210.186 111.359C211.187 112.345 212.531 112.902 213.936 112.914C219.162 113.093 222.53 104.792 218.626 97.3418C216.278 92.9997 212.684 89.4595 208.308 87.1765Z" fill="#D89ACC"/>
<path d="M281.706 96.2367C281.664 96.3138 281.593 96.3719 281.509 96.3994C281.426 96.4269 281.335 96.4217 281.254 96.385C258.281 87.1189 255.008 82.1732 259.195 73.5789C262.511 66.7534 274.126 75.9821 274.126 75.9821C274.126 75.9821 273.057 64.0374 281.285 64.4242C289.898 64.8381 291.044 71.4856 290.415 76.7147C289.842 81.5244 282.847 94.2159 281.706 96.2367Z" fill="#E2C7DF"/>
<path d="M321.651 80.7747C321.834 80.7808 322.014 80.7307 322.167 80.6313C322.321 80.5318 322.44 80.3877 322.509 80.2184C329.784 65.4916 328.29 53.5521 321.177 52.708C312.708 51.7019 313.481 62.0142 313.481 62.0142C312.908 60.7289 311.856 59.7177 310.549 59.1951C309.243 58.6724 307.784 58.6796 306.482 59.215C301.595 61.0735 301.739 70.0473 308.177 75.3874C312.025 78.4957 316.721 80.373 321.651 80.7747Z" fill="#E2C7DF"/>
<path d="M240.219 56.986C240.265 57.2577 240.55 57.4324 240.972 57.4631C257.694 58.8465 268.974 56.6664 269.412 47.7032C269.702 40.8981 258.211 44.7928 258.211 44.7928C258.211 44.7928 262.652 41.7113 259.778 38.5665C256.905 35.4218 247.756 36.3374 243.233 45.0069C240.171 50.887 240.041 55.5112 240.219 56.986Z" fill="#E2C7DF"/>
<path d="M290.763 51.0745C290.82 51.0963 290.884 51.0983 290.943 51.0801C291.002 51.0619 291.053 51.0246 291.089 50.974C300.07 36.4206 298.032 27.2058 292.882 26.3913C287.733 25.5767 286.701 36.6889 286.701 36.6889C286.701 36.6889 282.419 29.6014 278 33.1948C273.369 36.9489 275.46 41.1068 277.946 43.763C280.22 46.2278 289.312 50.4172 290.763 51.0745Z" fill="#D89ACC"/>
<path d="M387.816 80.3835C399.397 84.923 422.561 101.638 424.835 103.034C427.109 104.431 423.545 104.736 415.526 106.24C407.506 107.744 389.65 111.077 388.229 110.848C386.808 110.618 387.816 80.3835 387.816 80.3835Z" fill="url(#paint0_linear)"/>
<path opacity="0.5" d="M387.816 80.3835C399.397 84.923 422.561 101.638 424.835 103.034C427.109 104.431 423.545 104.736 415.526 106.24C407.506 107.744 389.65 111.077 388.229 110.848C386.808 110.618 387.816 80.3835 387.816 80.3835Z" fill="#0A102B"/>
<path d="M200.634 98.9005C202.57 132.961 206.418 166.887 212.161 200.516C212.877 203.745 391.695 180.323 397.65 179.059C397.998 178.985 399.306 178.292 399.293 176.033C399.169 159.098 387.792 80.3811 387.792 80.3811L200.634 98.9005Z" fill="url(#paint1_linear)"/>
<path d="M198.747 99.9106C174.749 125.697 164.958 136.624 166.111 137.942C168.39 140.602 274.511 127.749 285.713 126.58C296.915 125.412 305.457 125.697 307.055 124.063C308.654 122.429 337.104 86.2781 337.773 85.3141C338.441 84.3502 201.528 96.9155 198.747 99.9106Z" fill="#6CD5DD"/>
<path opacity="0.16" d="M337.77 85.3381C339.135 104.767 346.451 185.693 347.345 185.857C348.238 186.02 393.718 179.886 397.373 179.043C399.567 178.598 399.033 176.322 399.232 174.607C399.864 169.341 388.149 79.7376 387.821 80.3355C387.799 80.4304 337.77 85.3381 337.77 85.3381Z" fill="#0A102B"/>
<path d="M292.412 116.809C292.542 116.887 292.649 116.999 292.723 117.132C292.797 117.265 292.835 117.415 292.832 117.568C292.542 135.238 284.291 144.997 277.134 139.803C269.628 134.342 276.519 127.819 276.519 127.819C276.519 127.819 269.268 129.644 265.216 124.716C261.165 119.788 266.03 112.283 275.567 112.098C281.495 112.181 287.3 113.805 292.412 116.809Z" fill="#E2C7DF"/>
<path d="M173.41 101.949C173.337 101.795 173.22 101.665 173.073 101.577C172.927 101.488 172.758 101.445 172.587 101.453C157.34 101.445 148.431 107.399 150.71 113.652C152.988 119.905 160.984 114.332 160.984 114.332C160.984 114.332 158.114 120.11 161.664 123.408C165.213 126.707 172.637 122.945 174.439 115.359C175.443 110.887 175.085 106.216 173.41 101.949Z" fill="#E2C7DF"/>
<path d="M261.438 215.307C261.464 215.231 261.472 215.149 261.463 215.069C261.453 214.989 261.426 214.912 261.383 214.844C261.34 214.775 261.282 214.718 261.214 214.674C261.146 214.631 261.069 214.604 260.989 214.594C241.223 212.343 237.114 213.831 236.531 217.547C235.947 221.263 240.202 223.347 245.895 222.639C245.895 222.639 241.666 228.412 244.952 231.915C248.238 235.417 253.964 232.83 256.31 228.383C258.244 224.116 259.956 219.752 261.438 215.307Z" fill="#D89ACC"/>
<path d="M211.861 166.785C211.926 166.727 211.967 166.647 211.975 166.56C211.984 166.474 211.96 166.387 211.909 166.317C195.455 147.844 181.837 146.861 178.583 153.668C175.33 160.476 190.269 166.498 190.269 166.498C190.269 166.498 178.672 169.52 181.821 177.123C185.114 185.094 191.754 183.911 196.459 181.573C200.746 179.398 210.348 168.538 211.861 166.785Z" fill="#D89ACC"/>
<path d="M254.101 144.139C254.084 144.073 254.043 144.016 253.987 143.977C253.931 143.938 253.863 143.92 253.795 143.926C234.956 145.945 228.274 153.995 231.063 159.049C233.851 164.103 244.315 157.421 244.315 157.421C244.315 157.421 241.017 165.984 247.171 167.423C253.599 168.914 255.832 164.261 256.467 160.283C257.041 156.663 254.534 145.858 254.101 144.139Z" fill="#D89ACC"/>
<path d="M226.94 115.158C227.105 115.296 227.307 115.382 227.522 115.403C227.736 115.425 227.952 115.382 228.141 115.28C245.712 107.353 253.281 95.4606 247.483 89.3236C240.558 82.0888 233.566 92.0006 233.566 92.0006C233.566 92.0006 235.246 85.8587 229.324 84.2858C221.052 82.0614 216.915 90.5152 218.783 100.21C219.94 105.899 222.782 111.107 226.94 115.158Z" fill="#E2C7DF"/>
<path d="M468.263 218.283C467.367 218.229 466.493 217.985 465.698 217.567C464.903 217.149 464.206 216.567 463.654 215.86C462.784 214.618 462.019 212.355 463.365 208.546C464.962 204.059 469.789 199.803 474.469 195.678C477.448 193.202 480.221 190.487 482.76 187.561C484.149 185.833 484.65 184.366 484.271 183.199C483.809 181.78 481.982 180.635 478.851 179.795C474.028 178.516 465.584 178.945 458.762 179.296C456.589 179.415 454.54 179.51 452.799 179.552L449.593 179.687C443.463 180.053 437.317 180.061 431.187 179.711C420.808 179.105 411.845 175.682 410.372 171.781C409.986 170.78 409.841 169.703 409.95 168.636C410.058 167.569 410.416 166.543 410.996 165.641C411.771 164.598 412.786 163.758 413.955 163.192C415.124 162.626 416.413 162.351 417.711 162.39L421.804 162.259C428.961 162.064 442.281 161.682 447.255 161.119C457.865 159.991 468.384 158.135 478.739 155.565C478.902 155.531 479.072 155.562 479.212 155.651C479.352 155.74 479.453 155.881 479.491 156.042C479.53 156.204 479.504 156.375 479.42 156.518C479.335 156.661 479.198 156.765 479.038 156.809C468.642 159.406 458.08 161.281 447.426 162.423C442.403 162.993 429.047 163.372 421.816 163.572L417.737 163.691C416.64 163.649 415.549 163.873 414.556 164.343C413.564 164.812 412.699 165.515 412.036 166.39C411.561 167.119 411.267 167.95 411.179 168.816C411.091 169.681 411.212 170.555 411.531 171.364C412.66 174.344 420.344 177.82 431.24 178.466C437.306 178.818 443.387 178.812 449.452 178.447C450.672 178.389 451.782 178.331 452.694 178.315C454.411 178.271 456.461 178.163 458.621 178.055C465.516 177.699 474.101 177.2 479.094 178.594C482.722 179.569 484.778 180.956 485.397 182.876C485.928 184.459 485.337 186.33 483.62 188.413C481.077 191.392 478.291 194.154 475.291 196.672C470.744 200.677 466.037 204.824 464.544 209.006C463.626 211.596 463.677 213.713 464.679 215.09C465.23 215.752 465.932 216.274 466.725 216.612C467.518 216.951 468.38 217.095 469.24 217.034C471.402 217.023 474.624 214.826 479.096 211.796C482.368 209.579 486.437 206.812 491.286 204.124C493.64 202.821 495.65 201.557 497.596 200.334C503.47 196.646 508.099 193.741 517.052 193.085C531.387 192.028 572.446 209.445 574.216 210.183C574.372 210.249 574.495 210.374 574.559 210.531C574.622 210.687 574.621 210.863 574.556 211.019C574.49 211.174 574.365 211.297 574.208 211.361C574.052 211.425 573.876 211.424 573.72 211.359C573.303 211.171 531.204 193.345 517.177 194.36C508.543 194.988 504.03 197.819 498.311 201.414C496.353 202.648 494.33 203.923 491.937 205.246C487.139 207.903 483.097 210.648 479.851 212.844C475.195 216.013 471.831 218.293 469.269 218.3C468.934 218.314 468.598 218.308 468.263 218.283Z" fill="#DDA450"/>
<path d="M427.82 190.743C426.123 190.594 424.483 190.057 423.026 189.176C422.354 188.767 421.792 188.2 421.389 187.524C420.986 186.849 420.754 186.085 420.713 185.299C420.739 183.963 421.058 182.65 421.647 181.451C422.237 180.252 423.083 179.198 424.125 178.362C424.189 178.309 424.263 178.269 424.343 178.245C424.422 178.221 424.506 178.213 424.588 178.221C424.671 178.23 424.751 178.254 424.824 178.294C424.897 178.334 424.962 178.387 425.014 178.452C425.067 178.517 425.107 178.592 425.131 178.673C425.156 178.753 425.164 178.838 425.155 178.922C425.147 179.005 425.122 179.087 425.082 179.161C425.042 179.235 424.988 179.3 424.923 179.353C424.05 180.051 423.336 180.926 422.829 181.921C422.322 182.917 422.033 184.008 421.981 185.124C422.014 185.701 422.189 186.26 422.491 186.752C422.792 187.245 423.211 187.655 423.709 187.946C427.131 190.115 432.822 189.783 435.655 187.23C437.966 184.84 439.998 182.196 441.712 179.348C441.754 179.274 441.81 179.21 441.876 179.159C441.943 179.108 442.019 179.071 442.101 179.049C442.182 179.028 442.267 179.024 442.35 179.036C442.433 179.048 442.513 179.077 442.585 179.121C442.728 179.209 442.831 179.349 442.871 179.512C442.911 179.676 442.886 179.848 442.8 179.992C441.034 182.969 438.92 185.725 436.503 188.202C435.3 189.187 433.912 189.919 432.42 190.356C430.928 190.792 429.364 190.924 427.82 190.743Z" fill="#DDA450"/>
<path d="M436.132 162.343C435.972 162.326 435.824 162.251 435.717 162.131C435.664 162.067 435.624 161.993 435.6 161.914C435.576 161.834 435.568 161.75 435.576 161.668C435.584 161.585 435.609 161.505 435.649 161.432C435.688 161.359 435.742 161.294 435.807 161.242C438.585 158.756 444.326 154.824 447.765 152.393C448.693 151.747 449.463 151.218 449.961 150.856C458.68 144.616 467.216 142.691 474.415 141.614C474.559 141.624 474.696 141.683 474.802 141.782C474.909 141.88 474.979 142.011 475.001 142.155C475.023 142.298 474.996 142.444 474.924 142.57C474.852 142.696 474.74 142.794 474.605 142.847C467.555 143.891 459.193 145.785 450.696 151.866C450.198 152.228 449.391 152.765 448.487 153.414C445.079 155.774 439.344 159.768 436.672 162.168C436.6 162.234 436.515 162.285 436.421 162.315C436.328 162.345 436.229 162.355 436.132 162.343Z" fill="#DDA450"/>
<path d="M441.488 157.425C441.423 157.43 441.358 157.423 441.295 157.405C441.219 157.373 441.149 157.325 441.091 157.265C441.033 157.205 440.987 157.134 440.956 157.057C440.926 156.979 440.911 156.896 440.913 156.813C440.915 156.729 440.933 156.647 440.968 156.571C442.291 153.464 446.932 144.102 450.175 141.458C455.576 137.053 464.049 133.835 474.686 132.136C474.852 132.112 475.021 132.155 475.157 132.255C475.292 132.355 475.382 132.505 475.408 132.671C475.422 132.753 475.419 132.836 475.4 132.917C475.381 132.998 475.347 133.074 475.298 133.142C475.249 133.209 475.188 133.266 475.117 133.309C475.046 133.353 474.968 133.382 474.886 133.395C464.62 135.022 456.183 138.244 450.973 142.449C448.18 144.727 443.807 153.241 442.13 157.077C442.071 157.194 441.978 157.289 441.863 157.352C441.748 157.414 441.617 157.439 441.488 157.425Z" fill="#DDA450"/>
<path d="M458.354 137.785C458.265 137.775 458.178 137.748 458.099 137.705C458.02 137.661 457.95 137.602 457.894 137.532C457.799 137.392 457.761 137.22 457.789 137.053C457.817 136.886 457.909 136.737 458.046 136.637L459.265 135.753C465.816 131.016 476.676 123.063 487.596 123.238C502.831 123.475 514.847 126.007 530.446 130.433C541.316 133.492 577.888 143.933 591.859 149.929C591.936 149.962 592.005 150.01 592.064 150.069C592.122 150.129 592.168 150.2 592.198 150.278C592.229 150.356 592.243 150.439 592.242 150.522C592.24 150.605 592.221 150.688 592.187 150.764C592.156 150.84 592.109 150.91 592.051 150.968C591.992 151.026 591.922 151.072 591.846 151.103C591.769 151.134 591.687 151.149 591.604 151.147C591.521 151.145 591.44 151.127 591.364 151.093C577.464 145.128 540.962 134.706 530.103 131.661C514.606 127.306 502.679 124.734 487.576 124.511C477.08 124.343 466.401 132.071 460.011 136.775L458.791 137.671C458.663 137.76 458.509 137.8 458.354 137.785Z" fill="#DDA450"/>
<path d="M487.249 166.323C486.356 166.253 485.505 165.913 484.811 165.347C483.781 164.49 482.944 162.924 484.839 160.409C485.237 159.897 485.752 159.489 486.342 159.219C486.932 158.949 487.578 158.826 488.225 158.86C489.094 158.892 489.941 159.134 490.696 159.564C491.451 159.993 492.092 160.598 492.564 161.328C492.763 161.6 492.906 161.91 492.985 162.238C493.063 162.567 493.076 162.908 493.022 163.241C492.968 163.574 492.848 163.894 492.669 164.18C492.49 164.467 492.256 164.715 491.981 164.91C491.324 165.446 490.568 165.847 489.756 166.09C488.944 166.332 488.092 166.412 487.249 166.323ZM488.507 160.151L488.207 160.12C487.766 160.086 487.324 160.156 486.917 160.326C486.509 160.495 486.147 160.759 485.862 161.096C484.461 162.932 484.973 163.749 485.633 164.302C487.064 165.515 489.82 165.031 491.131 163.841C491.813 163.218 491.95 162.589 491.527 161.975C491.18 161.479 490.73 161.064 490.208 160.757C489.686 160.451 489.104 160.26 488.502 160.199L488.507 160.151Z" fill="#DDA450"/>
<path d="M483.25 149.164C482.298 149.137 481.383 148.787 480.656 148.172C480.464 147.986 480.311 147.763 480.206 147.517C480.102 147.271 480.049 147.006 480.049 146.739C480.043 144.529 483.099 143.479 485.151 143.482C485.516 143.444 485.886 143.483 486.236 143.596C486.586 143.709 486.909 143.894 487.183 144.139C487.458 144.384 487.678 144.684 487.83 145.019C487.982 145.354 488.063 145.717 488.067 146.084C488.043 146.528 487.93 146.963 487.735 147.363C487.54 147.762 487.267 148.119 486.931 148.411C486.596 148.703 486.205 148.924 485.783 149.062C485.36 149.201 484.914 149.253 484.471 149.215C484.063 149.221 483.656 149.204 483.25 149.164ZM485.481 144.766L485.205 144.737C483.432 144.739 481.37 145.562 481.356 146.774C481.355 146.872 481.374 146.969 481.413 147.059C481.452 147.149 481.51 147.229 481.582 147.295C482.447 147.852 483.479 148.09 484.5 147.968C486.032 147.953 486.833 146.991 486.825 146.116C486.827 145.934 486.793 145.754 486.723 145.586C486.653 145.418 486.55 145.267 486.42 145.14C486.29 145.013 486.135 144.914 485.966 144.849C485.796 144.784 485.615 144.754 485.433 144.761L485.481 144.766Z" fill="#DDA450"/>
<path d="M481.394 138.876C480.9 138.869 480.415 138.743 479.98 138.508C479.545 138.274 479.173 137.938 478.896 137.529C478.685 137.221 478.565 136.86 478.552 136.486C478.538 136.113 478.631 135.744 478.819 135.421C479.755 133.975 482.743 134.084 483.633 134.162C484.252 134.152 484.854 134.359 485.336 134.747C485.818 135.136 486.148 135.681 486.27 136.287C486.3 136.825 486.082 138.138 483.445 138.756C482.772 138.906 482.08 138.946 481.394 138.876ZM483.587 135.456C481.88 135.283 480.268 135.617 479.936 136.142C479.821 136.312 479.89 136.586 480.061 136.943C480.439 137.637 482.023 137.823 483.205 137.542C484.51 137.238 485.069 136.76 485.044 136.406C485.019 136.051 484.418 135.517 483.589 135.432L483.587 135.456Z" fill="#DDA450"/>
<path d="M481.647 131.484C481.304 131.476 480.967 131.387 480.665 131.223C480.363 131.06 480.104 130.826 479.91 130.542C479.722 130.133 479.687 129.67 479.811 129.238C479.936 128.805 480.211 128.431 480.587 128.183C481.174 127.66 481.915 127.341 482.7 127.276C483.484 127.211 484.267 127.404 484.933 127.824C485.241 128.013 485.482 128.295 485.62 128.63C485.758 128.965 485.787 129.334 485.703 129.686C485.404 130.712 483.981 131.332 482.704 131.482C482.353 131.522 481.998 131.523 481.647 131.484ZM481.018 129.914C481.141 130.133 481.719 130.301 482.554 130.204C483.673 130.063 484.401 129.591 484.491 129.308C484.58 129.026 484.389 128.994 484.131 128.786C483.701 128.545 483.205 128.449 482.716 128.511C482.226 128.572 481.77 128.789 481.413 129.129C481.147 129.357 480.894 129.696 481.018 129.914Z" fill="#DDA450"/>
<path d="M191.994 236.5C194.964 232.602 198.793 228.608 203.846 227.386" stroke="#DDA450" stroke-width="0.370412" stroke-linecap="round" stroke-linejoin="round"/>
<defs>
<linearGradient id="paint0_linear" x1="385.448" y1="95.1988" x2="425.846" y2="101.627" gradientUnits="userSpaceOnUse">
<stop stop-color="#00BCD4"/>
<stop offset="1" stop-color="#00BCD4"/>
</linearGradient>
<linearGradient id="paint1_linear" x1="50591.7" y1="-16389.4" x2="85864" y2="-12805.5" gradientUnits="userSpaceOnUse">
<stop stop-color="#00BCD4"/>
<stop offset="1" stop-color="#00BCD4"/>
</linearGradient>
</defs>
</svg>
