<svg width="403" height="294" viewBox="0 0 403 294" fill="none" xmlns="http://www.w3.org/2000/svg">
<path d="M265.487 68.7967C181.964 32.7938 22.1193 56.073 2.048 128.501C-17.111 197.671 101.728 291.22 209.148 293.015C304.06 294.604 373.701 277.025 395.696 234.606C424.704 178.669 364.46 111.451 265.487 68.7967Z" fill="#FFF4E1"/>
<path d="M175.598 57.1227C168.112 56.7989 159.244 49.7259 161.785 48.5389C163.987 47.6096 166.358 47.1447 168.748 47.1734C171.138 47.2021 173.497 47.7237 175.676 48.7056C179.777 50.7461 188.635 57.6917 175.598 57.1227Z" fill="#1F435E"/>
<path d="M147.865 46.832C134.758 49.9025 123.212 57.7309 116.737 80.4314C110.263 103.132 124.34 119.338 138.143 118.691C146.972 118.308 156.841 106.918 157.89 98.4426C157.923 98.1948 157.879 97.9431 157.765 97.7207C157.651 97.4983 157.473 97.3156 157.253 97.1967C155.291 96.2157 150.062 92.8313 150.141 85.8171C150.209 79.1364 153.898 76.733 158.813 77.9004C159.116 77.9712 159.434 77.946 159.722 77.8283C160.01 77.7105 160.255 77.506 160.421 77.2431C162.462 74.0745 168.77 63.509 167.632 54.837C166.249 44.6247 153.437 45.5272 147.865 46.832Z" fill="#1F435E"/>
<path d="M190.558 89.7607C189.763 89.7718 188.974 89.6151 188.244 89.3006C187.514 88.9862 186.858 88.5212 186.32 87.936C186.21 87.83 186.13 87.6975 186.087 87.5514C186.044 87.4053 186.04 87.2505 186.074 87.1022C186.241 86.5626 186.928 86.3664 188.036 86.0623C189.676 85.7102 191.232 85.0439 192.618 84.1003C192.665 84.0624 192.719 84.0345 192.777 84.0184C192.835 84.0022 192.896 83.9982 192.956 84.0064C193.015 84.0147 193.073 84.0351 193.124 84.0665C193.176 84.0978 193.221 84.1394 193.255 84.1886C193.293 84.2355 193.32 84.2892 193.336 84.3468C193.352 84.4043 193.357 84.4645 193.35 84.5238C193.342 84.5831 193.323 84.6404 193.294 84.6923C193.264 84.7443 193.224 84.7898 193.177 84.8262C191.695 85.8507 190.03 86.5801 188.272 86.9746C187.837 87.0757 187.411 87.2102 186.997 87.3769C187.6 88.0072 188.362 88.465 189.201 88.703C190.041 88.9409 190.929 88.9505 191.774 88.7306C191.894 88.707 192.018 88.7306 192.12 88.7965C192.222 88.8623 192.295 88.9653 192.323 89.0838C192.336 89.1425 192.337 89.2031 192.327 89.2622C192.316 89.3212 192.293 89.3776 192.26 89.4278C192.227 89.4781 192.185 89.5212 192.135 89.5548C192.085 89.5884 192.029 89.6117 191.97 89.6234C191.506 89.7218 191.032 89.7679 190.558 89.7607Z" fill="#DDA450"/>
<path d="M240.824 116.454C237.666 116.454 235.458 114.315 234.075 109.92C233.094 106.693 231.299 96.7651 236.331 93.6259C236.919 93.2423 237.588 93.0024 238.285 92.9257C238.982 92.849 239.687 92.9376 240.344 93.1844C241.027 93.4364 241.646 93.8375 242.155 94.3584C242.664 94.8793 243.051 95.5071 243.287 96.1961C244.17 100.825 244.695 105.515 244.856 110.224C244.69 112.883 244.552 116.454 240.824 116.454ZM236.812 94.4009C232.613 97.0202 233.742 105.81 234.948 109.646C236.155 113.481 238.117 115.532 240.834 115.532C243.552 115.532 243.777 113.334 243.895 110.234C243.73 105.624 243.219 101.033 242.365 96.5002C242.178 95.9437 241.868 95.4362 241.459 95.0151C241.05 94.594 240.551 94.2702 240 94.0673C239.479 93.878 238.92 93.8123 238.368 93.8753C237.817 93.9382 237.288 94.1282 236.822 94.4303L236.812 94.4009Z" fill="#DDA450"/>
<path d="M248.192 119.544C247.436 119.547 246.689 119.383 246.004 119.063C245.443 118.824 244.945 118.458 244.55 117.993C244.155 117.528 243.873 116.978 243.728 116.385C243.705 116.265 243.73 116.142 243.798 116.04C243.867 115.939 243.972 115.869 244.091 115.846C244.211 115.825 244.333 115.851 244.434 115.919C244.534 115.987 244.605 116.09 244.631 116.209C244.748 116.661 244.968 117.08 245.274 117.432C245.581 117.784 245.965 118.061 246.397 118.239C247.055 118.534 247.774 118.667 248.494 118.627C249.214 118.588 249.914 118.378 250.536 118.014C252.773 116.817 252.754 110.528 252.744 106.369V105.476C252.744 100.964 251.351 96.2156 250.115 94.9698C249.784 94.6826 249.396 94.4678 248.977 94.3394C248.558 94.211 248.117 94.1718 247.682 94.2242C247.16 94.2442 246.648 94.3742 246.179 94.6058C245.711 94.8374 245.297 95.1654 244.964 95.5682C244.928 95.6155 244.882 95.6552 244.83 95.6848C244.779 95.7144 244.721 95.7334 244.662 95.7407C244.603 95.748 244.542 95.7435 244.485 95.7273C244.427 95.7112 244.374 95.6838 244.327 95.6467C244.277 95.6118 244.236 95.5672 244.205 95.5157C244.173 95.4641 244.153 95.4067 244.145 95.3469C244.136 95.2872 244.14 95.2264 244.156 95.1683C244.173 95.1101 244.201 95.0559 244.238 95.009C244.652 94.505 245.168 94.0936 245.751 93.8012C246.334 93.5089 246.971 93.3421 247.623 93.3119C248.186 93.2437 248.757 93.2959 249.298 93.465C249.839 93.6342 250.338 93.9163 250.762 94.2929C252.332 95.8527 253.705 100.964 253.705 105.437V106.33C253.705 111.235 253.705 117.317 251.017 118.779C250.157 119.273 249.184 119.536 248.192 119.544Z" fill="#DDA450"/>
<path d="M257.021 117.709C256.263 117.721 255.516 117.531 254.856 117.158C254.195 116.786 253.646 116.245 253.264 115.591C253.208 115.482 253.198 115.357 253.235 115.241C253.271 115.125 253.352 115.029 253.46 114.972C253.57 114.921 253.695 114.913 253.81 114.951C253.925 114.99 254.021 115.071 254.078 115.178C254.522 115.877 255.199 116.396 255.988 116.646C256.777 116.895 257.629 116.858 258.394 116.542C259.591 116.101 260.749 112.903 260.533 108.508C260.327 104.319 258.002 96.2451 257.227 95.166C256.452 94.0869 254.382 93.8515 252.41 94.9796C252.358 95.0195 252.298 95.0477 252.233 95.0623C252.169 95.077 252.103 95.0777 252.038 95.0646C251.974 95.0514 251.913 95.0246 251.86 94.9859C251.807 94.9473 251.762 94.8977 251.73 94.8405C251.697 94.7833 251.677 94.7199 251.672 94.6543C251.666 94.5888 251.674 94.5228 251.695 94.4607C251.717 94.3986 251.752 94.3419 251.797 94.2944C251.843 94.2468 251.898 94.2095 251.959 94.185C254.431 92.7723 257.001 93.3119 257.963 94.6363C258.924 95.9606 261.239 104.289 261.445 108.459C261.671 112.971 260.523 116.738 258.708 117.405C258.168 117.606 257.597 117.709 257.021 117.709Z" fill="#DDA450"/>
<path d="M269.509 111.402C267.351 111.402 264.928 108.979 264.82 108.88C264.735 108.794 264.687 108.678 264.687 108.557C264.687 108.436 264.735 108.319 264.82 108.233C264.862 108.19 264.912 108.155 264.968 108.132C265.023 108.108 265.083 108.096 265.144 108.096C265.204 108.096 265.264 108.108 265.319 108.132C265.375 108.155 265.425 108.19 265.467 108.233C266.134 108.9 268.175 110.607 269.656 110.489C270.219 110.478 270.773 110.354 271.287 110.125C271.801 109.896 272.264 109.566 272.648 109.155C272.859 108.857 273.004 108.517 273.071 108.158C273.139 107.799 273.129 107.43 273.041 107.075C272.56 104.515 269.705 99.139 266.497 96.8533C263.486 94.7049 261.435 94.2635 260.415 95.5388C260.378 95.5864 260.331 95.6263 260.279 95.656C260.226 95.6858 260.168 95.7049 260.108 95.7121C260.048 95.7194 259.987 95.7148 259.928 95.6985C259.87 95.6822 259.815 95.6546 259.768 95.6172C259.673 95.5404 259.612 95.4291 259.599 95.3077C259.587 95.1863 259.622 95.0648 259.699 94.9698C261.082 93.2432 263.554 93.6356 267.027 96.1077C270.5 98.5799 273.433 104.201 273.894 106.899C274.009 107.379 274.019 107.879 273.923 108.363C273.826 108.847 273.626 109.305 273.335 109.704C272.875 110.218 272.315 110.632 271.689 110.92C271.063 111.209 270.385 111.366 269.695 111.382L269.509 111.402Z" fill="#DDA450"/>
<path d="M160.156 98.4721C159.833 98.4721 159.509 98.4721 159.175 98.4721C159.055 98.4621 158.943 98.405 158.864 98.3132C158.785 98.2215 158.745 98.1024 158.753 97.9816C158.756 97.9209 158.771 97.8614 158.797 97.8067C158.823 97.752 158.861 97.7033 158.907 97.6637C158.953 97.6242 159.007 97.5945 159.065 97.5766C159.123 97.5587 159.184 97.553 159.244 97.5598C164.934 97.9816 165.738 94.6168 165.777 94.4598C165.803 94.3421 165.874 94.2392 165.975 94.1732C166.076 94.1072 166.199 94.0833 166.317 94.1066C166.435 94.1326 166.538 94.2035 166.604 94.3044C166.67 94.4052 166.694 94.5279 166.67 94.6462C166.67 94.6462 165.787 98.4721 160.156 98.4721Z" fill="#DDA450"/>
<path d="M161.746 86.6018C161.638 86.6022 161.533 86.5639 161.451 86.4939C160.608 85.7974 158.067 84.0022 156.438 84.1787C156.248 84.1923 156.062 84.2456 155.893 84.3352C155.724 84.4247 155.576 84.5485 155.457 84.6987C155.382 84.7923 155.272 84.8522 155.153 84.8651C155.033 84.8779 154.913 84.8428 154.82 84.7673C154.726 84.6919 154.666 84.5823 154.653 84.4627C154.64 84.3431 154.676 84.2233 154.751 84.1297C154.945 83.8825 155.188 83.6782 155.465 83.5296C155.742 83.3811 156.047 83.2914 156.36 83.2664C158.695 83.0211 161.902 85.6797 162.04 85.7876C162.087 85.8255 162.126 85.8727 162.155 85.9262C162.184 85.9796 162.201 86.0383 162.207 86.0988C162.212 86.1592 162.206 86.2202 162.187 86.278C162.168 86.3357 162.138 86.3892 162.099 86.435C162.056 86.4875 162.002 86.5298 161.941 86.5586C161.88 86.5875 161.813 86.6022 161.746 86.6018Z" fill="#DDA450"/>
<path d="M158.283 91.4186C158.189 91.4203 158.097 91.393 158.02 91.3402C157.943 91.2875 157.884 91.212 157.851 91.1243C157.559 90.0695 157.539 88.9582 157.791 87.8933C158.043 86.8284 158.56 85.8444 159.293 85.0322C159.33 84.9856 159.376 84.9468 159.429 84.9181C159.481 84.8894 159.538 84.8713 159.598 84.8649C159.657 84.8585 159.717 84.8639 159.774 84.8809C159.831 84.8978 159.884 84.9259 159.931 84.9636C160.026 85.0404 160.086 85.1517 160.099 85.2731C160.112 85.3945 160.076 85.516 159.999 85.611C159.366 86.3 158.916 87.1374 158.691 88.0462C158.467 88.9549 158.475 89.9055 158.714 90.8103C158.753 90.925 158.746 91.05 158.695 91.1596C158.644 91.2692 158.552 91.3549 158.44 91.3989L158.283 91.4186Z" fill="#DDA450"/>
<path d="M128.657 46.7927C134.376 35.0206 114.923 23.1505 107.349 32.3719C99.7759 41.5933 101.463 50.285 110.292 54.8761C116.276 57.9369 126.253 51.7173 128.657 46.7927Z" fill="#1F435E"/>
<path d="M199.298 77.5962C198.219 82.6876 202.29 87.1218 204.723 87.7496C207.156 88.3774 296.251 83.237 306.404 81.8636C316.558 80.4902 312.987 55.4451 309.21 43.3984C305.433 31.3517 292.435 13.4483 283.4 12.742C278.201 12.3496 250.791 38.2481 235.674 49.3825C220.557 60.5169 200.24 73.1032 199.298 77.5962Z" fill="#EDBF56"/>
<path d="M204.576 86.5822C204.307 86.5907 204.039 86.5417 203.791 86.4385C203.542 86.3353 203.318 86.1803 203.134 85.9837C203.09 85.9382 203.056 85.884 203.033 85.8245C203.011 85.7651 203.001 85.7016 203.004 85.6382C203.008 85.5747 203.024 85.5127 203.053 85.4559C203.081 85.3991 203.121 85.3487 203.17 85.3081C203.218 85.2674 203.275 85.2372 203.336 85.2195C203.397 85.2018 203.461 85.1969 203.524 85.205C203.587 85.2132 203.648 85.2343 203.702 85.267C203.757 85.2997 203.804 85.3434 203.841 85.3951C203.988 85.5263 204.167 85.6156 204.36 85.6535C204.554 85.6915 204.754 85.6768 204.939 85.611C205.263 85.4834 205.41 85.1695 205.381 84.63C205.111 82.32 204.05 80.1745 202.379 78.5575C201.496 77.8414 201.153 77.7433 201.015 77.7924C200.878 77.8414 200.907 77.9199 200.868 78.0867C200.831 78.1957 200.755 78.2869 200.654 78.3425C200.553 78.398 200.435 78.4138 200.323 78.3867C200.211 78.3597 200.114 78.2917 200.049 78.1963C199.985 78.1008 199.959 77.9847 199.975 77.8708C199.999 77.6536 200.082 77.4471 200.215 77.2741C200.348 77.101 200.527 76.968 200.731 76.8898C201.506 76.625 202.428 77.3803 202.928 77.7826C204.804 79.5699 205.995 81.958 206.293 84.5319C206.353 84.9029 206.289 85.2832 206.112 85.6146C205.935 85.946 205.654 86.2101 205.312 86.3663C205.085 86.4893 204.834 86.5628 204.576 86.5822Z" fill="#DDA450"/>
<path d="M177.736 75.7225C177.472 75.7189 177.212 75.6622 176.971 75.5557C176.597 75.4185 176.264 75.1907 176 74.8928C175.737 74.5948 175.551 74.2361 175.46 73.8488C175.418 73.6068 175.44 73.358 175.525 73.1273C175.609 72.8966 175.753 72.6921 175.941 72.5342C176.126 72.3405 176.363 72.2028 176.623 72.1369C176.883 72.071 177.157 72.0795 177.412 72.1615C177.809 72.359 178.153 72.6464 178.419 73.0006C178.685 73.3548 178.864 73.7662 178.943 74.202C179.003 74.4222 179 74.6549 178.934 74.8735C178.868 75.0921 178.742 75.2877 178.57 75.438C178.335 75.6297 178.039 75.7306 177.736 75.7225ZM176.99 73.0051C176.818 73.0168 176.657 73.094 176.539 73.221C176.469 73.2777 176.416 73.3524 176.385 73.437C176.354 73.5216 176.346 73.613 176.363 73.7016C176.434 73.9328 176.56 74.1431 176.731 74.3141C176.902 74.4851 177.112 74.6116 177.344 74.6826C177.446 74.7368 177.561 74.7651 177.677 74.7651C177.793 74.7651 177.908 74.7368 178.011 74.6826C178.109 74.6042 178.079 74.4276 178.06 74.3295C178.015 74.0498 177.91 73.7831 177.753 73.5477C177.595 73.3124 177.389 73.1139 177.147 72.9659L176.99 73.0051Z" fill="#1F435E"/>
<path d="M174.812 67.6783C172.556 70.788 172.262 73.476 171.134 73.3583C170.006 73.2405 169.888 72.083 170.153 70.9254C170.418 69.7678 172.291 66.6972 173.223 66.1675C174.155 65.6378 175.941 66.0988 174.812 67.6783Z" fill="#1F435E"/>
<path d="M227.061 88.034C227.061 95.5485 227.64 103.249 229.258 105.604C230.652 107.644 233.653 108.135 233.653 108.135C233.536 107.428 233.428 106.653 233.369 105.81C233.296 104.768 233.296 103.722 233.369 102.68C232.616 102.339 231.961 101.812 231.466 101.15C230.922 100.418 230.584 99.5547 230.485 98.6485C230.259 96.6865 230.141 87.5337 230.141 87.5337L227.061 88.034Z" fill="#132E47"/>
<path d="M270.755 100.13C271.844 96.971 271.481 91.8403 271.03 85.0322L267.959 85.2774C267.959 85.2774 268.459 91.1634 268.361 93.5865C268.304 94.6841 268.166 95.7759 267.949 96.8533C268.464 97.3298 268.952 97.8342 269.411 98.364C270.529 99.7963 270.755 100.13 270.755 100.13Z" fill="#132E47"/>
<path d="M290.179 8.91611C290.121 8.91657 290.063 8.90554 290.009 8.88366C289.955 8.86177 289.906 8.82946 289.865 8.78858C289.782 8.70112 289.736 8.58527 289.736 8.46484C289.736 8.34442 289.782 8.22857 289.865 8.14111L297.38 0.136117C297.421 0.0930881 297.47 0.0588459 297.525 0.0354528C297.58 0.0120598 297.639 0 297.698 0C297.758 0 297.817 0.0120598 297.872 0.0354528C297.926 0.0588459 297.976 0.0930881 298.017 0.136117C298.06 0.177325 298.094 0.226816 298.118 0.28161C298.141 0.336403 298.153 0.395365 298.153 0.454943C298.153 0.514521 298.141 0.573483 298.118 0.628277C298.094 0.68307 298.06 0.732562 298.017 0.77377L290.512 8.818C290.466 8.85608 290.413 8.88441 290.356 8.90127C290.298 8.91813 290.238 8.92318 290.179 8.91611Z" fill="#6CD5DD"/>
<path d="M309.544 24.0923C309.445 24.0936 309.349 24.0626 309.27 24.0041C309.191 23.9457 309.133 23.8629 309.105 23.7684C309.077 23.6739 309.081 23.5729 309.116 23.4808C309.151 23.3887 309.215 23.3106 309.298 23.2584L318.284 17.4312C318.334 17.3982 318.39 17.3752 318.448 17.3637C318.506 17.3522 318.567 17.3524 318.625 17.3643C318.683 17.3761 318.739 17.3994 318.788 17.4328C318.837 17.4662 318.88 17.509 318.912 17.5588C318.945 17.6096 318.968 17.6665 318.979 17.7261C318.989 17.7857 318.989 17.8468 318.976 17.9061C318.963 17.9653 318.939 18.0214 318.904 18.0712C318.87 18.121 318.826 18.1636 318.775 18.1964L309.799 24.0236C309.722 24.0703 309.634 24.0942 309.544 24.0923Z" fill="#6CD5DD"/>
<path d="M318.726 48.7252C318.667 48.7304 318.607 48.7238 318.55 48.7059C318.494 48.688 318.441 48.6591 318.396 48.6208C318.35 48.5825 318.312 48.5357 318.285 48.4829C318.258 48.4301 318.241 48.3725 318.236 48.3132C318.23 48.2539 318.237 48.1942 318.255 48.1375C318.273 48.0808 318.302 48.0282 318.34 47.9826C318.378 47.9371 318.425 47.8995 318.478 47.8721C318.531 47.8446 318.588 47.8278 318.648 47.8227L328.36 46.1157C328.479 46.0958 328.602 46.1237 328.701 46.1934C328.8 46.2632 328.868 46.3692 328.889 46.4885C328.902 46.548 328.902 46.6095 328.89 46.6691C328.878 46.7287 328.854 46.7851 328.819 46.8348C328.784 46.8846 328.739 46.9265 328.687 46.9581C328.635 46.9897 328.577 47.0102 328.517 47.0183L318.824 48.7252H318.726Z" fill="#6CD5DD"/>
<path d="M327.251 79.5975L317.539 78.6165C317.479 78.6116 317.42 78.5947 317.366 78.5667C317.313 78.5387 317.265 78.5002 317.227 78.4536C317.189 78.4069 317.16 78.353 317.143 78.295C317.125 78.2371 317.12 78.1763 317.127 78.1162C317.142 77.9965 317.202 77.8871 317.295 77.8104C317.388 77.7337 317.507 77.6957 317.627 77.7042L327.339 78.6852C327.459 78.6917 327.571 78.7454 327.651 78.8347C327.731 78.9239 327.772 79.0413 327.766 79.161C327.759 79.2806 327.706 79.3928 327.616 79.4729C327.527 79.5529 327.41 79.5942 327.29 79.5877L327.251 79.5975Z" fill="#6CD5DD"/>
<path d="M177.56 146.865C177.486 146.865 177.414 146.847 177.349 146.813C177.284 146.779 177.228 146.729 177.187 146.669C172.203 139.233 175.137 121.859 176.147 116.709C177.255 111.147 182.494 108.262 187.556 105.476C193.03 102.475 198.19 99.5904 198.641 93.7044C198.906 90.2709 196.748 85.6601 195.316 82.5994C194.77 81.659 194.373 80.6398 194.139 79.5779C194.407 78.3491 194.86 77.1683 195.483 76.0757C196.13 74.6925 197.199 72.3871 197.052 71.9163C196.709 71.7004 194.462 70.9353 192.284 70.0916C190.107 69.2479 187.487 68.3552 185.81 67.6097C183.495 66.6286 182.268 65.0492 180.905 63.2932C180.109 62.2576 179.247 61.2745 178.325 60.3502C178.282 60.309 178.248 60.2595 178.224 60.2047C178.201 60.1499 178.189 60.091 178.189 60.0314C178.189 59.9718 178.201 59.9129 178.224 59.8581C178.248 59.8033 178.282 59.7538 178.325 59.7126C178.367 59.6693 178.417 59.6348 178.473 59.6113C178.528 59.5878 178.588 59.5757 178.649 59.5757C178.709 59.5757 178.769 59.5878 178.824 59.6113C178.88 59.6348 178.93 59.6693 178.972 59.7126C179.891 60.6789 180.75 61.7011 181.542 62.7733C182.699 64.5059 184.289 65.9059 186.153 66.8347C187.791 67.5606 190.332 68.4827 192.569 69.297C194.295 69.829 195.98 70.4847 197.611 71.259C198.367 71.7985 197.817 73.221 196.277 76.4779C195.75 77.4709 195.329 78.5165 195.021 79.5975C195.301 80.5095 195.665 81.3931 196.11 82.2364C197.582 85.3756 199.809 90.0845 199.524 93.7927C199.034 100.199 193.413 103.289 187.968 106.281C182.857 109.087 178.04 111.735 177.02 116.886C174.96 127.314 174.077 140.479 177.913 146.159C177.98 146.26 178.004 146.384 177.981 146.504C177.957 146.623 177.886 146.728 177.785 146.796C177.717 146.838 177.639 146.862 177.56 146.865Z" fill="#DDA450"/>
<path d="M240 149.102C239.934 149.102 239.868 149.088 239.807 149.061C239.746 149.034 239.692 148.994 239.647 148.945C232.594 140.41 231.377 133.837 230.2 127.471C229.876 125.705 229.533 123.87 229.072 122.026C226.266 110.852 222.646 106.742 219.468 104.191C216.839 102.072 216.574 100.267 216.809 99.0606C217.143 97.4616 218.663 96.1176 220.792 95.529C222.096 95.1285 223.484 95.0923 224.807 95.4243C226.13 95.7563 227.337 96.4439 228.297 97.4125C235.164 104.898 234.575 107.743 234.487 108.047C234.471 108.105 234.444 108.16 234.406 108.207C234.369 108.255 234.322 108.294 234.269 108.322C234.215 108.351 234.157 108.368 234.096 108.373C234.036 108.378 233.975 108.37 233.918 108.351C233.861 108.335 233.807 108.308 233.76 108.271C233.713 108.234 233.674 108.189 233.645 108.137C233.615 108.085 233.597 108.027 233.59 107.968C233.583 107.909 233.588 107.849 233.604 107.792C233.604 107.792 234.104 105.113 227.62 97.9815C226.769 97.143 225.707 96.5492 224.547 96.2626C223.387 95.9761 222.171 96.0073 221.028 96.3531C219.242 96.8436 217.967 97.9325 217.712 99.198C217.457 100.463 218.242 101.984 220.037 103.426C223.333 106.075 227.09 110.293 229.965 121.761C230.426 123.625 230.769 125.469 231.103 127.255C232.25 133.504 233.447 140.008 240.353 148.307C240.41 148.373 240.447 148.455 240.459 148.541C240.47 148.628 240.457 148.716 240.419 148.795C240.382 148.874 240.322 148.94 240.248 148.986C240.174 149.032 240.088 149.055 240 149.053V149.102Z" fill="#DDA450"/>
<path d="M262.132 127.726C262.043 127.724 261.956 127.698 261.881 127.649C261.806 127.601 261.747 127.532 261.71 127.451C261.71 127.382 258.767 120.692 251.9 119.603C251.84 119.589 251.783 119.563 251.734 119.527C251.684 119.491 251.641 119.445 251.609 119.393C251.577 119.341 251.555 119.282 251.545 119.222C251.535 119.161 251.537 119.099 251.552 119.039C251.566 118.979 251.592 118.922 251.628 118.872C251.664 118.823 251.709 118.78 251.762 118.748C251.814 118.716 251.872 118.694 251.933 118.684C251.994 118.674 252.056 118.676 252.116 118.691C259.424 119.848 262.456 126.774 262.583 127.068C262.607 127.124 262.62 127.183 262.62 127.243C262.621 127.304 262.61 127.364 262.587 127.419C262.564 127.475 262.53 127.526 262.487 127.568C262.445 127.611 262.394 127.644 262.338 127.667C262.276 127.706 262.205 127.726 262.132 127.726Z" fill="#DDA450"/>
<path d="M275.042 138.056C274.983 138.051 274.925 138.034 274.872 138.007C274.819 137.979 274.772 137.942 274.734 137.896C274.695 137.851 274.667 137.798 274.649 137.741C274.631 137.684 274.625 137.624 274.63 137.565C274.63 137.487 275.356 129.58 274.63 124.292C274.122 120.017 272.562 115.935 270.088 112.412C270.016 112.314 269.985 112.191 270.001 112.071C270.018 111.95 270.081 111.84 270.176 111.765C270.224 111.728 270.278 111.701 270.336 111.686C270.394 111.671 270.454 111.667 270.513 111.675C270.573 111.683 270.63 111.703 270.682 111.734C270.733 111.764 270.778 111.805 270.814 111.853C273.382 115.506 275.004 119.74 275.532 124.174C276.268 129.56 275.532 137.565 275.532 137.644C275.518 137.761 275.459 137.869 275.368 137.946C275.277 138.022 275.161 138.061 275.042 138.056Z" fill="#DDA450"/>
<path d="M142.704 134.936C142.656 134.945 142.606 134.945 142.557 134.936C142.444 134.896 142.35 134.813 142.297 134.705C142.244 134.596 142.235 134.472 142.273 134.357C144.235 128.687 145.157 124.096 143.558 118.74C143.538 118.682 143.531 118.622 143.536 118.561C143.541 118.501 143.558 118.442 143.586 118.389C143.615 118.336 143.654 118.289 143.702 118.251C143.749 118.214 143.804 118.186 143.862 118.171C143.978 118.137 144.102 118.15 144.209 118.207C144.315 118.263 144.395 118.36 144.431 118.475C146.099 124.076 145.177 128.815 143.136 134.661C143.102 134.746 143.041 134.818 142.964 134.868C142.887 134.917 142.796 134.941 142.704 134.936Z" fill="#DDA450"/>
<path d="M180.601 135.917C189.802 136.663 193.55 138.428 200.427 144.364C209.158 151.898 230.279 185.114 235.743 202.547C235.743 202.547 237.881 155.763 240.049 152.604C242.218 149.445 267.704 136.005 274.934 140.665C277.249 142.156 288.737 198.446 279.133 237.265C269.529 276.083 242.335 273.464 228.817 271.207C219.664 269.677 198.023 256.836 198.023 256.836C197.219 261.864 195.609 266.73 193.256 271.247C188.763 279.585 187.105 269.834 177.648 270.383C156.605 271.61 152.838 283.804 146.727 282.43L146.648 282.489C146.648 282.489 114.039 273.474 83.6578 253.873C73.2935 247.269 63.3257 240.063 53.8058 232.291C53.8058 232.232 53.5998 232.88 53.7372 232.438C63.2823 202.567 82.6277 169.781 95.7143 154.674C105.387 143.471 126.547 134.387 138.761 134.191C144.715 134.112 140.517 144.746 156.154 157.283C162.864 162.669 168.75 166.397 175.98 164.043C186.477 160.619 174.617 135.446 180.601 135.917Z" fill="#03A1B9"/>
<path d="M198.288 257.061C197.808 272.11 204.478 285.294 209.079 292.838C209.138 292.946 194.188 292.201 184.329 291.112C171.419 289.699 145.844 282.381 145.883 282.195C149.071 267.656 149.895 257.208 150.092 257.287C178.315 268.166 198.288 257.061 198.288 257.061Z" fill="#EDBF56"/>
<path d="M146.727 282.518C149.199 266.361 152.897 239.227 155.35 207.795C155.358 207.673 155.319 207.553 155.24 207.46C155.161 207.366 155.049 207.307 154.928 207.295C154.808 207.292 154.692 207.333 154.601 207.411C154.51 207.489 154.452 207.598 154.437 207.717C151.995 239.06 148.316 266.096 145.844 282.273L146.727 282.518Z" fill="white"/>
<path d="M198.062 257.071H197.925C197.81 257.033 197.714 256.951 197.659 256.842C197.604 256.734 197.594 256.608 197.631 256.492C199.21 251.744 201.231 246.771 203.37 241.493C208.52 228.789 213.847 215.643 214.337 202.861C214.7 193.394 211.257 180.013 207.912 170.654C207.885 170.596 207.87 170.534 207.869 170.47C207.867 170.406 207.879 170.342 207.904 170.283C207.928 170.224 207.964 170.171 208.011 170.126C208.057 170.082 208.112 170.048 208.172 170.026C208.232 170.004 208.296 169.995 208.36 169.999C208.424 170.004 208.486 170.021 208.543 170.051C208.599 170.08 208.649 170.121 208.689 170.171C208.729 170.221 208.758 170.279 208.775 170.341C212.15 179.788 215.642 193.306 215.25 202.9C214.749 215.84 209.158 229.652 204.213 241.836C202.084 247.094 200.064 252.068 198.504 256.777C198.47 256.865 198.409 256.941 198.33 256.994C198.251 257.046 198.157 257.073 198.062 257.071Z" fill="white"/>
<path d="M234.458 225.983C234.398 225.981 234.339 225.966 234.285 225.94C234.231 225.914 234.183 225.878 234.144 225.833C234.104 225.788 234.074 225.736 234.056 225.679C234.037 225.622 234.03 225.562 234.036 225.502C234.036 225.443 234.448 219.724 235.331 202.537C235.332 202.477 235.345 202.418 235.37 202.364C235.394 202.31 235.43 202.261 235.474 202.22C235.518 202.18 235.569 202.149 235.626 202.129C235.682 202.109 235.742 202.101 235.802 202.105C235.862 202.108 235.921 202.122 235.975 202.148C236.03 202.174 236.078 202.21 236.119 202.255C236.159 202.299 236.19 202.352 236.209 202.409C236.229 202.466 236.237 202.526 236.233 202.586C235.36 219.783 234.948 225.512 234.948 225.561C234.938 225.682 234.881 225.794 234.789 225.872C234.697 225.951 234.578 225.991 234.458 225.983Z" fill="white"/>
<path d="M187.693 78.5674C186.447 78.4478 185.274 77.9202 184.358 77.0665C179.316 72.9561 176.127 67.7371 175.951 65.0688C175.911 64.7735 175.934 64.473 176.018 64.1873C176.103 63.9015 176.247 63.6369 176.441 63.4109C176.567 63.2806 176.721 63.1796 176.89 63.1152C177.06 63.0508 177.241 63.0245 177.422 63.0381C180.228 63.1558 186.712 70.0425 187.821 71.4355C190.224 74.457 190.185 76.9488 189.126 77.9886C188.743 78.3627 188.228 78.5707 187.693 78.5674ZM177.393 63.9406C177.339 63.9327 177.285 63.9375 177.234 63.9546C177.183 63.9716 177.136 64.0004 177.099 64.0387C176.897 64.3232 176.812 64.6746 176.863 65.0197C177.02 67.4428 180.149 72.4656 184.937 76.3601C186.487 77.6256 187.88 78.0082 188.537 77.3412C189.194 76.6741 189.096 74.3981 187.154 72.0045C185.349 69.7286 179.502 64.0387 177.432 63.9504L177.393 63.9406Z" fill="#03A1B9"/>
<path d="M194.453 69.4637C194.373 69.463 194.296 69.4418 194.227 69.4023C194.158 69.3628 194.101 69.3062 194.06 69.238C191.049 64.1074 186.624 59.4967 184.584 59.3691C184.44 59.3484 184.293 59.3665 184.158 59.4217C184.024 59.4769 183.906 59.5672 183.819 59.6831C183.093 60.6641 183.701 62.5084 185.535 64.9805C185.572 65.0279 185.599 65.0822 185.614 65.1401C185.629 65.1981 185.633 65.2585 185.625 65.3178C185.617 65.3772 185.597 65.4343 185.566 65.4859C185.536 65.5374 185.495 65.5824 185.447 65.6181C185.35 65.6895 185.229 65.7202 185.11 65.7037C184.991 65.6872 184.883 65.6248 184.809 65.5298C182.671 62.6457 182.082 60.4286 183.102 59.1239C183.281 58.8902 183.516 58.7061 183.785 58.5893C184.055 58.4725 184.35 58.4269 184.643 58.4568C187.311 58.6334 192.01 63.9504 194.845 68.777C194.876 68.8281 194.897 68.885 194.905 68.9443C194.914 69.0036 194.91 69.064 194.894 69.1218C194.879 69.1796 194.851 69.2336 194.814 69.2806C194.777 69.3276 194.731 69.3665 194.678 69.395C194.612 69.4411 194.533 69.4651 194.453 69.4637Z" fill="#03A1B9"/>
<path d="M184.162 69.1008C184.08 69.1 183.999 69.0799 183.926 69.042C183.823 68.9789 183.748 68.8777 183.719 68.7602C183.69 68.6427 183.708 68.5184 183.769 68.4141C184.966 66.4521 185.957 65.4711 186.81 65.4711C186.974 65.4676 187.137 65.5053 187.282 65.5807C187.428 65.6561 187.552 65.7668 187.644 65.9028C187.706 66.0071 187.724 66.1314 187.694 66.2488C187.665 66.3663 187.591 66.4675 187.487 66.5306C187.437 66.5628 187.38 66.5845 187.321 66.5946C187.262 66.6046 187.201 66.6027 187.142 66.589C187.084 66.5753 187.029 66.55 186.98 66.5147C186.932 66.4794 186.891 66.4348 186.859 66.3834C186.604 66.3834 185.878 66.6483 184.544 68.9046C184.502 68.9666 184.445 69.017 184.378 69.0512C184.311 69.0855 184.237 69.1025 184.162 69.1008Z" fill="#03A1B9"/>
<path d="M227.061 88.034C227.061 95.5485 227.64 103.249 229.258 105.604C230.652 107.644 233.653 108.135 233.653 108.135C233.536 107.428 233.428 106.653 233.369 105.81C233.296 104.768 233.296 103.722 233.369 102.68C232.616 102.339 231.961 101.812 231.466 101.15C230.922 100.418 230.584 99.5547 230.485 98.6485C230.259 96.6865 230.141 87.5337 230.141 87.5337L227.061 88.034Z" fill="#132E47"/>
</svg>
