<svg width="404" height="302" viewBox="0 0 404 302" fill="none" xmlns="http://www.w3.org/2000/svg">
<path d="M128.255 48.1065C269.565 -22.5531 324.217 5.80201 365.488 35.6564C396.869 58.3591 429.21 157.7 371.922 197.63C240.446 289.269 113.15 259.955 74.4963 250.885C17.3949 237.467 -5.99686 208.096 1.29446 159.19C8.55784 110.516 91.2579 66.6188 128.255 48.1065Z" fill="#FFF4E1"/>
<path d="M207.006 45.6389C206.568 46.441 205.97 47.1451 205.25 47.7078C204.53 48.2705 203.702 48.68 202.818 48.9111C201.934 49.1422 201.011 49.1901 200.108 49.0517C199.204 48.9134 198.339 48.5917 197.564 48.1066C192.796 45.313 192.973 40.7129 195.785 39.1764C195.785 39.1764 190.654 34.3434 191.707 30.4976C192.759 26.6517 197.825 26.3071 197.825 26.3071C197.825 26.3071 194.333 18.2709 199.398 14.2481C204.464 10.2253 209.185 12.1529 209.185 12.1529C209.185 12.1529 208.096 5.76482 215.797 3.62306C222.874 1.67684 225.435 7.45961 225.435 7.45961C225.435 7.45961 227.297 4.15384 230.324 6.23974C230.367 5.37558 230.58 4.52843 230.951 3.74698C231.323 2.96553 231.845 2.2652 232.488 1.68626C233.131 1.10731 233.882 0.66118 234.698 0.373507C235.514 0.0858329 236.379 -0.0377065 237.243 0.00999164C243.882 0.00999164 243.612 5.53202 243.612 5.53202C243.612 5.53202 245.12 2.67323 248.557 4.71256C251.248 6.31423 249.898 10.2439 249.898 10.2439C251.466 9.36365 253.259 8.96488 255.052 9.09736C256.846 9.22985 258.561 9.88773 259.982 10.9889C263.949 13.7825 261.78 18.4385 261.78 18.4385C261.78 18.4385 263.353 16.334 266.156 18.783C268.959 21.2321 266.324 24.7241 266.324 24.7241C266.324 24.7241 270.868 25.7764 270.868 28.7469C270.929 29.5254 270.783 30.306 270.446 31.0105C270.11 31.7149 269.594 32.3184 268.95 32.7604C268.95 32.7604 271.92 36.4293 269.993 39.3999C269.062 40.8898 267.609 41.5509 265.421 41.1319C265.151 41.076 266.352 37.0812 264.266 32.8069C262.776 29.7433 260.997 27.9926 256.761 28.1509C255.676 28.2069 254.621 28.5293 253.691 29.0896C252.76 29.6499 251.982 30.4309 251.425 31.3636C251.201 31.7195 250.877 32.0014 250.494 32.1737C249.134 32.7418 246.014 33.7847 243.631 32.6486C242.683 32.1383 241.867 31.4152 241.247 30.5362C240.626 29.6572 240.218 28.6463 240.055 27.5829C240.055 27.5829 237.96 31.3077 233.788 31.0097C231.158 30.7361 228.716 29.5186 226.915 27.5829C226.915 27.5829 226.496 34.6414 219.308 34.2969C218.278 34.3268 217.266 34.0203 216.426 33.4238C215.586 32.8273 214.963 31.9733 214.652 30.9911C214.652 30.9911 216.169 36.122 212.724 37.4257C210.594 38.1622 208.279 38.1622 206.15 37.4257C206.15 37.4257 209.12 41.4113 207.006 45.6389Z" fill="#1F435E"/>
<path d="M172.813 154.757C172.813 130.285 183.205 95.1602 197.08 81.9837C209.064 70.5858 218.237 69.1145 218.237 69.1145C218.237 69.1145 223.824 75.7167 229.988 75.7167C232.755 75.7865 235.524 75.6746 238.276 75.3815C238.978 77.0379 239.503 78.7641 239.841 80.5311C239.952 81.0712 237.904 82.2072 237.243 87.3754C236.488 93.1861 240.409 99.8908 252.412 96.8271C268.875 92.6274 272.638 87.7013 273.085 81.5368C273.457 76.2289 271.529 74.1616 270.831 67.7363C270.3 62.8941 299.987 60.8827 320.883 79.2181C342.096 97.8421 359.668 152.634 360.124 191.437C360.627 234.98 265.346 262.684 243.621 262.684C221.896 262.684 216.97 239.534 216.551 234.114C216.132 228.099 243.686 215.229 243.686 215.229C243.686 215.229 226.571 213.795 205.693 199.101C184.816 184.407 172.813 154.757 172.813 154.757Z" fill="#EDBF56"/>
<path d="M184.146 190.096C184.061 190.247 183.934 190.37 183.78 190.448C183.625 190.526 183.451 190.556 183.28 190.534C167.849 189.472 158.835 182.609 161.527 176.417C164.711 169.051 172.701 174.555 172.701 174.555C172.701 174.555 169.907 170.653 173.744 167.543C177.581 164.432 184.807 168.781 186.092 176.594C186.806 181.188 186.128 185.891 184.146 190.096Z" fill="#AA7BA5"/>
<path d="M106.902 168.083C106.762 168.095 106.629 168.149 106.521 168.239C106.413 168.329 106.334 168.45 106.297 168.585C102.088 180.524 104.323 189.538 109.845 189.528C116.419 189.528 114.883 181.688 114.883 181.688C115.438 182.613 116.331 183.287 117.373 183.566C118.416 183.846 119.526 183.71 120.47 183.187C124.046 181.324 123.133 174.461 117.676 170.96C114.454 168.945 110.701 167.942 106.902 168.083Z" fill="#AA7BA5"/>
<path d="M176.417 173.94C176.566 173.886 176.696 173.788 176.787 173.658C176.879 173.528 176.928 173.373 176.929 173.214C177.86 159.581 172.962 150.865 167.226 152.448C160.391 154.31 164.236 162.048 164.236 162.048C163.39 161.242 162.263 160.796 161.094 160.804C159.924 160.813 158.804 161.276 157.969 162.095C154.794 165.066 157.709 171.938 164.385 174.014C168.313 175.194 172.504 175.168 176.417 173.94Z" fill="#AA7BA5"/>
<path d="M223.945 183.457C223.863 183.608 223.738 183.731 223.585 183.809C223.432 183.887 223.259 183.917 223.088 183.895C207.845 182.842 198.924 176.054 201.578 169.926C204.744 162.644 212.678 168.064 212.678 168.064C212.678 168.064 209.884 164.2 213.702 161.136C217.52 158.072 224.643 162.356 225.919 170.075C226.618 174.633 225.931 179.295 223.945 183.457Z" fill="#AA7BA5"/>
<path d="M173.334 169.042C173.311 168.827 173.353 168.61 173.454 168.419C173.555 168.228 173.711 168.072 173.902 167.971C190.44 157.905 204.632 158.408 206.345 166.667C208.413 176.51 198.756 176.659 198.756 176.659C198.756 176.659 201.894 178.652 200.227 184.593C198.561 190.534 188.019 191.335 181.054 184.276C177.016 180.084 174.327 174.777 173.334 169.042Z" fill="#AA7BA5"/>
<path d="M119.399 176.771C119.297 176.87 119.226 176.997 119.194 177.136C119.163 177.274 119.173 177.419 119.222 177.553C123.18 189.575 130.452 195.348 134.82 191.968C140.016 187.945 134.82 182.935 134.82 182.935C134.82 182.935 137.688 184.118 139.373 180.449C141.059 176.78 136.161 171.919 129.707 172.469C125.919 172.843 122.329 174.341 119.399 176.771Z" fill="#AA7BA5"/>
<path d="M125.312 188.709C125.21 188.806 125.138 188.931 125.107 189.069C125.075 189.206 125.085 189.35 125.135 189.482C129.093 201.513 136.365 207.277 140.733 203.897C145.929 199.883 139.941 194.585 139.941 194.585C140.949 194.98 142.071 194.968 143.07 194.551C144.07 194.134 144.868 193.344 145.296 192.35C146.981 188.681 142.074 183.811 135.62 184.369C131.827 184.75 128.235 186.262 125.312 188.709Z" fill="#D89ACC"/>
<path d="M198.458 168.753C198.376 168.907 198.25 169.032 198.095 169.112C197.94 169.192 197.765 169.222 197.592 169.2C182.162 168.139 173.148 161.266 175.83 155.083C179.024 147.717 187.051 153.221 187.051 153.221C187.051 153.221 184.257 149.31 188.094 146.209C191.93 143.108 199.156 147.447 200.442 155.251C201.144 159.849 200.453 164.552 198.458 168.753Z" fill="#AA7BA5"/>
<path d="M229.467 171.407C229.397 171.53 229.293 171.63 229.167 171.694C229.042 171.759 228.9 171.785 228.759 171.77C216.132 170.895 208.748 165.252 210.946 160.205C213.562 154.171 220.127 158.687 220.127 158.687C219.496 157.807 219.232 156.716 219.392 155.645C219.552 154.574 220.123 153.608 220.984 152.951C224.113 150.408 230.044 153.966 231.097 160.354C231.674 164.118 231.107 167.969 229.467 171.407Z" fill="#AA7BA5"/>
<path d="M109.5 196.605C109.608 196.512 109.684 196.388 109.719 196.25C109.754 196.111 109.746 195.966 109.696 195.833C106.073 183.727 98.9591 177.739 94.4986 180.999C89.1908 184.872 95.0387 190.311 95.0387 190.311C94.0427 189.886 92.9207 189.867 91.9106 190.256C90.9006 190.646 90.082 191.413 89.6284 192.396C87.8405 196.019 92.6083 201.019 99.0801 200.647C102.88 200.374 106.51 198.966 109.5 196.605Z" fill="#AA7BA5"/>
<path d="M149.859 160.065C149.727 160.017 149.583 160.01 149.447 160.045C149.31 160.08 149.188 160.155 149.095 160.261C140.221 169.293 138.424 178.4 143.424 180.747C149.384 183.541 151.311 175.793 151.311 175.793C151.425 176.869 151.951 177.858 152.78 178.553C153.608 179.248 154.674 179.594 155.753 179.518C159.785 179.341 161.862 172.748 158.416 167.263C156.35 164.06 153.368 161.552 149.859 160.065Z" fill="#AA7BA5"/>
<path d="M81.946 186.25C81.7614 186.262 81.577 186.223 81.4129 186.138C81.2488 186.053 81.1111 185.924 81.0148 185.766C73.4441 173.335 74.8968 163.836 82.1974 163.334C89.498 162.831 87.9615 171.454 87.9615 171.454C87.9615 171.454 92.2358 166.947 97.2736 168.595C102.311 170.243 102.265 177.711 95.6626 182.041C91.526 184.595 86.8031 186.045 81.946 186.25Z" fill="#D89ACC"/>
<path d="M121.932 196.047C121.838 196.207 121.701 196.338 121.536 196.425C121.372 196.512 121.186 196.552 121.001 196.54C106.455 196.177 99.2572 189.808 102.786 183.401C106.316 176.994 112.741 182.945 112.741 182.945C112.741 182.945 111.26 176.92 115.367 173.633C119.474 170.345 125.731 174.378 125.796 182.265C125.708 187.114 124.378 191.859 121.932 196.047Z" fill="#D89ACC"/>
<path d="M195.376 163.809C195.38 163.976 195.435 164.139 195.533 164.275C195.631 164.411 195.768 164.514 195.925 164.572C209.632 170.634 220.472 168.809 220.965 162.291C221.552 154.534 212.175 155.633 212.175 155.633C212.175 155.633 216.337 153.547 214.456 149.114C212.575 144.682 204.399 145.175 199.771 151.293C197.087 154.931 195.556 159.291 195.376 163.809Z" fill="#D89ACC"/>
<path d="M177.171 172.934C160.809 166.583 153.062 167.245 151.339 171.249C148.62 177.609 156.656 178.559 156.656 178.559C156.656 178.559 151.069 182.879 155.129 187.256C158.016 190.366 164.441 189.817 169.321 183.671C172.645 179.527 177.171 172.934 177.171 172.934Z" fill="#D89ACC"/>
<path d="M143.35 165.14C143.329 165.09 143.292 165.049 143.244 165.024C143.197 164.998 143.142 164.99 143.089 165C128.525 167.738 123.813 174.424 126.327 178.196C128.841 181.967 136.57 176.128 136.57 176.128C136.57 176.128 134.54 183.01 139.42 183.746C144.523 184.518 145.938 180.747 146.218 177.609C146.395 174.722 143.769 166.462 143.35 165.14Z" fill="#D89ACC"/>
<path d="M229.607 180.058C229.724 180.14 229.864 180.184 230.007 180.184C230.15 180.184 230.29 180.14 230.408 180.058C241.498 173.968 245.847 165.773 241.722 162.095C236.823 157.718 232.745 164.572 232.745 164.572C232.95 163.509 232.734 162.408 232.141 161.502C231.548 160.597 230.626 159.957 229.569 159.72C225.658 158.724 221.766 164.442 223.489 170.681C224.541 174.349 226.673 177.617 229.607 180.058Z" fill="#D89ACC"/>
<path d="M171.407 163.529C171.355 163.52 171.308 163.492 171.276 163.451C171.243 163.41 171.227 163.358 171.23 163.306C171.053 149.487 173.222 146.144 178.679 146.823C183.335 147.401 181.156 155.102 181.156 155.102C181.156 155.102 187.675 152.038 189.109 156.731C190.655 161.648 187.163 163.659 184.108 164.386C181.333 165.056 172.775 163.743 171.407 163.529Z" fill="#D89ACC"/>
<path d="M206.867 190.469C206.778 190.578 206.66 190.659 206.526 190.702C206.392 190.745 206.248 190.748 206.113 190.711C193.783 187.843 187.386 181.11 190.366 176.463C193.905 170.876 199.678 176.463 199.678 176.463C199.193 175.495 199.104 174.375 199.431 173.343C199.758 172.31 200.474 171.445 201.429 170.932C204.921 168.921 210.21 173.372 210.238 179.853C210.194 183.648 209.021 187.344 206.867 190.469Z" fill="#D89ACC"/>
<path d="M97.106 190.059C96.9714 190.013 96.826 190.007 96.6883 190.044C96.5507 190.08 96.427 190.157 96.3331 190.264C87.4587 199.287 85.6615 208.394 90.6714 210.75C96.6311 213.544 98.5493 205.796 98.5493 205.796C98.6625 206.874 99.1903 207.865 100.021 208.56C100.852 209.255 101.92 209.6 103 209.521C107.023 209.344 109.109 202.761 105.654 197.276C103.59 194.071 100.612 191.557 97.106 190.059Z" fill="#D89ACC"/>
<path d="M154.077 192.564C154.048 192.627 153.997 192.677 153.933 192.703C153.868 192.729 153.797 192.729 153.732 192.704C135.509 186.986 132.697 183.392 135.388 176.519C137.529 171.072 147.018 177.451 147.018 177.451C147.018 177.451 145.463 168.334 151.814 168.139C158.463 167.934 159.748 172.972 159.58 177.032C159.431 180.766 154.822 190.906 154.077 192.564Z" fill="#E2C7DF"/>
<path d="M183.829 178.261C183.971 178.253 184.107 178.203 184.22 178.116C184.333 178.03 184.417 177.911 184.462 177.776C189.118 166.015 187.256 156.927 181.771 156.713C175.197 156.452 176.417 164.33 176.417 164.33C175.897 163.38 175.029 162.669 173.995 162.348C172.961 162.026 171.842 162.119 170.876 162.607C167.226 164.33 167.859 171.221 173.167 174.936C176.309 177.085 180.023 178.242 183.829 178.261Z" fill="#E2C7DF"/>
<path d="M119.799 164.917C119.799 165.131 120.088 165.242 120.405 165.242C133.348 165.289 141.915 162.933 141.673 156.005C141.487 150.762 132.883 154.45 132.883 154.45C132.883 154.45 136.114 151.815 133.712 149.58C131.309 147.345 124.334 148.593 121.392 155.53C119.39 160.233 119.539 163.799 119.799 164.917Z" fill="#E2C7DF"/>
<path d="M158.305 157.299C158.348 157.316 158.396 157.315 158.439 157.298C158.482 157.281 158.517 157.248 158.538 157.206C164.562 145.473 162.43 138.517 158.426 138.21C154.422 137.902 154.301 146.516 154.301 146.516C154.301 146.516 150.576 141.329 147.4 144.356C144.076 147.522 145.929 150.595 148.006 152.485C149.924 154.217 157.131 156.88 158.305 157.299Z" fill="#D89ACC"/>
<path d="M234.663 173.94C243.836 176.734 262.655 188.159 264.462 189.091C266.268 190.022 263.531 190.478 257.496 192.126C251.462 193.775 237.941 197.416 236.796 197.332C235.65 197.248 234.663 173.94 234.663 173.94Z" fill="url(#paint0_linear)"/>
<path opacity="0.5" d="M234.663 173.94C243.836 176.734 262.655 188.159 264.462 189.091C266.268 190.022 263.531 190.478 257.496 192.126C251.462 193.775 237.941 197.416 236.796 197.332C235.65 197.248 234.663 173.94 234.663 173.94Z" fill="#0A102B"/>
<path d="M91.9283 199.548C97.2548 239.012 106.185 274.37 106.977 276.94C107.768 279.51 243.742 250.503 248.249 249.181C248.51 249.097 249.469 248.492 249.32 246.76C248.193 233.723 234.672 173.94 234.672 173.94L91.9283 199.548Z" fill="url(#paint1_linear)"/>
<path d="M90.5318 200.433C73.6491 221.72 66.7954 230.715 67.7173 231.647C69.6356 233.574 150.417 217.222 158.975 215.649C167.533 214.075 174.098 213.786 175.234 212.417C176.37 211.048 196.074 181.548 196.54 180.756C197.005 179.965 92.4873 197.965 90.5318 200.433Z" fill="#6CD5DD"/>
<path opacity="0.16" d="M196.484 180.784C198.719 195.628 209.251 257.385 209.958 257.441C210.666 257.497 245.214 249.991 247.989 249.218C249.646 248.743 249.087 247.03 249.143 245.698C249.311 241.61 234.859 173.456 234.644 173.94C234.663 173.968 196.484 180.784 196.484 180.784Z" fill="#0A102B"/>
<path d="M163.557 207.724C163.658 207.78 163.745 207.86 163.808 207.958C163.871 208.055 163.91 208.167 163.92 208.283C164.767 221.887 159.022 229.887 153.211 226.329C147.111 222.605 152.01 217.157 152.01 217.157C152.01 217.157 146.543 219.019 143.135 215.462C139.727 211.905 143.005 205.815 150.296 205.135C154.866 204.832 159.436 205.725 163.557 207.724Z" fill="#E2C7DF"/>
<path d="M71.1533 203.534C71.0855 203.42 70.9858 203.328 70.8667 203.27C70.7476 203.213 70.6142 203.191 70.4828 203.208C58.7683 204.139 52.2872 209.242 54.4103 213.916C56.5334 218.591 62.3907 213.814 62.3907 213.814C62.3907 213.814 60.5283 218.47 63.4709 220.751C66.4135 223.033 71.8517 219.727 72.7829 213.786C73.2725 210.283 72.7051 206.713 71.1533 203.534Z" fill="#D89ACC"/>
<path d="M128.162 282.853C128.111 282.817 128.053 282.792 127.992 282.781C127.931 282.769 127.869 282.771 127.808 282.786C127.748 282.801 127.692 282.829 127.644 282.868C127.595 282.907 127.556 282.956 127.528 283.012C121.01 296.896 121.103 300.267 123.664 301.636C126.225 303.005 128.804 300.379 129.689 296.048C129.689 296.048 132.855 300.583 136.207 299.047C139.559 297.51 139.103 292.696 136.421 289.875C133.793 287.392 131.035 285.048 128.162 282.853Z" fill="#E2C7DF"/>
<path d="M73.9282 270.459C73.9675 270.513 74.0248 270.551 74.0897 270.566C74.1546 270.582 74.2228 270.573 74.2821 270.543C91.2486 261.818 94.6102 251.844 90.1125 248.101C85.6148 244.357 78.2769 254.396 78.2769 254.396C78.2769 254.396 78.2769 245.158 71.9727 246.015C65.3984 246.946 64.9887 252.124 65.8361 256.081C66.6462 259.75 72.9132 268.988 73.9282 270.459Z" fill="#D89ACC"/>
<path d="M135.788 231.06C135.769 231.011 135.734 230.97 135.688 230.944C135.642 230.919 135.588 230.91 135.537 230.92C121.178 233.621 116.531 240.232 118.98 243.957C121.429 247.682 129.056 241.927 129.056 241.927C129.056 241.927 127.053 248.706 131.849 249.433C136.878 250.196 138.312 246.481 138.554 243.38C138.749 240.512 136.207 232.364 135.788 231.06Z" fill="#D89ACC"/>
<path d="M113.123 210.462C113.261 210.552 113.423 210.599 113.588 210.599C113.754 210.599 113.915 210.552 114.054 210.462C127.091 203.319 132.166 193.7 127.333 189.379C121.578 184.248 116.801 192.285 116.801 192.285C116.801 192.285 117.732 187.461 113.076 186.595C106.623 185.384 103.922 192.182 105.952 199.464C107.188 203.765 109.686 207.596 113.123 210.462Z" fill="#E2C7DF"/>
<path d="M223.237 231.172C212.063 231.935 205.628 234.068 202.146 233.276C198.663 232.485 187.451 228.154 184.378 229.756C180.979 231.507 180.774 235.623 185.393 237.69C192.256 240.754 199.091 243.557 199.091 243.557C199.091 243.557 192.983 246.145 190.654 245.419C188.326 244.693 171.742 240.288 169.144 241.694C165.689 243.557 166.35 248.492 169.749 250.14C169.749 250.14 164.814 253.111 169.544 257.087C172.556 259.74 176.08 261.746 179.899 262.981C179.899 262.981 180.048 266.846 186.762 269.621C190.597 271.044 194.68 271.678 198.765 271.483C198.765 271.483 199.128 272.629 203.878 274.119C211.085 276.381 223.6 273.411 230.827 268.41C238.053 263.41 242.001 262.469 242.001 262.469L223.237 231.172Z" fill="#FFF4E1"/>
<path d="M232.698 76.2196C231.721 76.2184 230.745 76.1624 229.774 76.052C219.959 74.9718 213.767 67.0566 209.688 50.2949C209.672 50.1868 209.697 50.0766 209.758 49.986C209.819 49.8954 209.912 49.8309 210.018 49.8052C210.125 49.7795 210.237 49.7945 210.332 49.8472C210.428 49.9 210.501 49.9866 210.536 50.0901C214.512 66.3954 220.472 74.1337 229.877 75.1673C240.865 76.3686 249.19 70.8838 253.967 59.281C254.02 59.1889 254.105 59.1194 254.206 59.0854C254.307 59.0515 254.417 59.0554 254.515 59.0965C254.613 59.1376 254.693 59.213 254.739 59.3087C254.786 59.4043 254.796 59.5137 254.768 59.6163C250.335 70.4182 242.56 76.2196 232.698 76.2196Z" fill="#DDA450"/>
<path d="M258.632 48.1439C257.518 48.1361 256.412 47.9538 255.354 47.6038C255.301 47.5842 255.252 47.5544 255.211 47.5159C255.169 47.4775 255.135 47.4312 255.112 47.3798C255.088 47.3283 255.074 47.2727 255.072 47.2161C255.07 47.1594 255.079 47.1029 255.098 47.0497C255.118 46.9965 255.148 46.9477 255.186 46.906C255.225 46.8644 255.271 46.8307 255.322 46.8069C255.374 46.7831 255.429 46.7697 255.486 46.7675C255.543 46.7652 255.599 46.7741 255.652 46.7936C255.652 46.7936 260.029 48.3208 262.553 45.8624C263.605 44.7712 264.323 43.4009 264.62 41.9141C264.647 41.8017 264.716 41.7039 264.813 41.6414C264.91 41.5789 265.028 41.5565 265.141 41.5789C265.253 41.6055 265.35 41.6752 265.411 41.7728C265.472 41.8704 265.492 41.9881 265.467 42.1004C265.138 43.7632 264.336 45.2958 263.158 46.5143C261.924 47.6334 260.297 48.2191 258.632 48.1439Z" fill="#DDA450"/>
<path d="M254.544 38.6734C254.505 38.6833 254.463 38.6833 254.423 38.6734C254.369 38.6584 254.318 38.6327 254.273 38.5978C254.229 38.5629 254.191 38.5195 254.164 38.4702C254.136 38.4208 254.118 38.3665 254.112 38.3103C254.105 38.254 254.11 38.1971 254.125 38.1427C254.172 37.9844 255.28 34.185 257.245 33.1328C257.503 32.9824 257.789 32.888 258.086 32.8559C258.383 32.8238 258.683 32.8547 258.968 32.9465C259.021 32.9635 259.072 32.9909 259.115 33.0273C259.158 33.0637 259.194 33.1082 259.22 33.1584C259.246 33.2086 259.261 33.2635 259.266 33.3198C259.271 33.3762 259.264 33.4328 259.247 33.4866C259.231 33.5414 259.204 33.5924 259.168 33.6367C259.132 33.681 259.088 33.7177 259.038 33.7446C258.987 33.7715 258.932 33.788 258.875 33.7933C258.818 33.7986 258.761 33.7925 258.707 33.7753C258.533 33.7196 258.349 33.7015 258.168 33.7224C257.986 33.7433 257.811 33.8026 257.655 33.8964C256.295 34.6227 255.243 37.3791 254.954 38.3848C254.925 38.4698 254.869 38.5435 254.796 38.5953C254.722 38.6471 254.634 38.6744 254.544 38.6734Z" fill="#DDA450"/>
<path d="M259.806 40.6197C259.709 40.6204 259.616 40.5886 259.54 40.5294C259.463 40.4703 259.41 40.3873 259.387 40.2937C259.09 39.455 258.588 38.7042 257.926 38.1103C257.263 37.5164 256.463 37.0984 255.597 36.8949C255.541 36.8801 255.489 36.854 255.444 36.8184C255.399 36.7827 255.362 36.7381 255.335 36.6875C255.308 36.6368 255.292 36.5812 255.287 36.5239C255.282 36.4667 255.289 36.4091 255.308 36.3548C255.324 36.3 255.351 36.249 255.387 36.2047C255.423 36.1604 255.467 36.1237 255.517 36.0968C255.568 36.0699 255.623 36.0534 255.68 36.0481C255.736 36.0428 255.794 36.0489 255.848 36.0661C256.858 36.31 257.789 36.8062 258.554 37.5082C259.32 38.2101 259.894 39.0949 260.225 40.0796C260.239 40.1346 260.241 40.1919 260.233 40.248C260.224 40.3041 260.205 40.358 260.175 40.4065C260.146 40.4551 260.107 40.4972 260.061 40.5306C260.015 40.564 259.963 40.588 259.908 40.601L259.806 40.6197Z" fill="#DDA450"/>
<path d="M220.555 61.041H220.453C219.242 61.041 219.214 58.9551 219.159 54.8112C219.159 52.6881 219.084 50.0435 218.861 47.2592C218.853 47.146 218.889 47.0342 218.962 46.9474C219.035 46.8605 219.139 46.8054 219.252 46.7936C219.367 46.7857 219.481 46.8231 219.57 46.8978C219.659 46.9725 219.715 47.0787 219.727 47.194C219.95 49.9876 219.987 52.6602 220.025 54.7926C220.025 57.1858 220.099 59.8956 220.499 60.1843H220.546C222.864 60.0446 225.158 59.6352 227.381 58.9644C227.436 58.9471 227.494 58.9409 227.551 58.946C227.609 58.9512 227.665 58.9677 227.716 58.9945C227.767 59.0213 227.812 59.058 227.849 59.1024C227.886 59.1467 227.913 59.198 227.93 59.2531C227.96 59.3629 227.947 59.48 227.893 59.5803C227.84 59.6807 227.75 59.7568 227.642 59.7932C225.338 60.4888 222.959 60.9077 220.555 61.041Z" fill="#DDA450"/>
<path d="M228.629 64.263C228.514 64.263 228.404 64.2182 228.323 64.1381C228.241 64.058 228.194 63.9491 228.191 63.8346C228.19 63.7776 228.2 63.7209 228.221 63.6678C228.242 63.6148 228.273 63.5664 228.313 63.5257C228.353 63.4849 228.401 63.4525 228.453 63.4304C228.506 63.4083 228.563 63.3969 228.62 63.3969C233.145 63.3318 235.38 59.1693 235.995 56.7202C236.006 56.6619 236.029 56.6064 236.063 56.5573C236.096 56.5082 236.14 56.4665 236.19 56.4346C236.24 56.4028 236.296 56.3815 236.355 56.3721C236.414 56.3627 236.474 56.3654 236.531 56.38C236.589 56.3945 236.643 56.4207 236.69 56.4569C236.738 56.4931 236.777 56.5385 236.806 56.5904C236.835 56.6422 236.853 56.6995 236.859 56.7587C236.866 56.8178 236.86 56.8776 236.842 56.9344C236.162 59.6256 233.676 64.1978 228.629 64.263Z" fill="#DDA450"/>
<path d="M240.614 90.3366C240.499 90.3341 240.39 90.287 240.31 90.2051C240.23 90.1233 240.185 90.0134 240.185 89.8989C240.199 85.6649 239.594 81.4516 238.388 77.3929C238.373 77.3384 238.368 77.2815 238.375 77.2254C238.382 77.1693 238.399 77.115 238.427 77.0658C238.455 77.0165 238.492 76.9731 238.536 76.9382C238.581 76.9032 238.631 76.8774 238.686 76.8621C238.74 76.8468 238.797 76.8424 238.853 76.8491C238.909 76.8558 238.964 76.8735 239.013 76.9011C239.062 76.9288 239.106 76.9659 239.141 77.0103C239.176 77.0548 239.201 77.1056 239.217 77.1601C240.443 81.3041 241.054 85.6054 241.033 89.9268C241.026 90.0349 240.979 90.1365 240.902 90.2122C240.824 90.2879 240.722 90.3322 240.614 90.3366Z" fill="#DDA450"/>
<path d="M269.276 75.9216C269.194 75.9207 269.113 75.8966 269.044 75.8521C268.975 75.8077 268.92 75.7446 268.885 75.6702C265.011 67.4011 262.711 61.3017 260.159 49.0378C260.148 48.9822 260.147 48.9248 260.158 48.8689C260.168 48.8131 260.19 48.7599 260.221 48.7123C260.252 48.6647 260.292 48.6238 260.339 48.5918C260.386 48.5597 260.439 48.5373 260.495 48.5256C260.55 48.514 260.608 48.5135 260.664 48.524C260.719 48.5346 260.773 48.5561 260.82 48.5872C260.868 48.6183 260.909 48.6585 260.941 48.7055C260.973 48.7524 260.995 48.8052 261.007 48.8609C263.53 61.041 265.821 67.0566 269.676 75.307C269.701 75.3588 269.715 75.4151 269.718 75.4725C269.721 75.5299 269.712 75.5872 269.692 75.6411C269.672 75.695 269.641 75.7443 269.602 75.7861C269.562 75.8279 269.515 75.8613 269.462 75.8844C269.404 75.9109 269.34 75.9236 269.276 75.9216Z" fill="#DDA450"/>
<path d="M215.62 53.5821C215.384 53.5659 215.155 53.4973 214.949 53.3813C214.742 53.2653 214.565 53.1049 214.428 52.9116C214.181 52.6276 214.009 52.2862 213.927 51.9186C213.846 51.551 213.858 51.1688 213.963 50.8071C214.04 50.5854 214.173 50.3873 214.349 50.2323C214.525 50.0773 214.739 49.9705 214.968 49.9224C215.214 49.8513 215.474 49.8493 215.72 49.9167C215.967 49.984 216.19 50.1181 216.365 50.3042C216.601 50.6506 216.753 51.0476 216.808 51.4632C216.863 51.8788 216.82 52.3015 216.682 52.6974C216.632 52.9097 216.524 53.1036 216.369 53.2568C216.214 53.4101 216.019 53.5164 215.806 53.5634L215.62 53.5821ZM215.145 50.7885C215.062 50.8031 214.984 50.8403 214.92 50.8961C214.855 50.9519 214.808 51.0242 214.782 51.1051C214.73 51.3297 214.732 51.5636 214.789 51.7872C214.845 52.0108 214.955 52.2176 215.108 52.3901C215.166 52.483 215.245 52.5609 215.339 52.6175C215.433 52.6742 215.539 52.7079 215.648 52.716C215.769 52.716 215.825 52.5391 215.853 52.4553C215.945 52.2021 215.981 51.9319 215.958 51.6634C215.936 51.395 215.855 51.1346 215.723 50.9002C215.648 50.8164 215.499 50.714 215.145 50.7885Z" fill="#1F435E"/>
<path d="M216.244 43.8975C212.724 44.8288 210.917 46.6912 210.154 45.9276C209.39 45.164 209.977 44.2421 210.889 43.5716C211.802 42.9012 214.977 41.7092 215.992 41.8582C217.007 42.0072 218.004 43.4133 216.244 43.8975Z" fill="#1F435E"/>
<path d="M229.001 49.1309C228.679 49.1204 228.372 48.9872 228.145 48.7584C227.825 48.4831 227.574 48.1367 227.412 47.7469C227.251 47.3572 227.182 46.935 227.213 46.5142C227.272 46.266 227.399 46.0392 227.58 45.8597C227.761 45.6802 227.989 45.5553 228.238 45.4992C228.46 45.4259 228.697 45.4122 228.926 45.4596C229.154 45.507 229.367 45.6138 229.541 45.7692C229.812 46.0313 230.012 46.3569 230.125 46.7164C230.237 47.0759 230.257 47.4578 230.184 47.8272C230.161 48.0952 230.067 48.3521 229.911 48.5715C229.756 48.7909 229.545 48.9648 229.299 49.075C229.203 49.1079 229.103 49.1267 229.001 49.1309ZM228.694 46.3373H228.536C228.191 46.4397 228.117 46.6073 228.089 46.7191C228.089 46.9881 228.147 47.2539 228.259 47.4982C228.372 47.7426 228.536 47.9596 228.74 48.1345C228.806 48.1997 228.945 48.3021 229.048 48.2649C229.15 48.2276 229.309 48.0321 229.364 47.7155C229.413 47.4908 229.408 47.2576 229.348 47.0355C229.288 46.8135 229.175 46.6091 229.02 46.4397C228.932 46.3551 228.816 46.3055 228.694 46.3V46.3373Z" fill="#1F435E"/>
<path d="M225.482 41.1318C229.02 40.2472 231.488 40.9456 231.786 39.9027C232.084 38.8597 231.106 38.3569 230.007 38.1892C228.908 38.0216 225.528 38.571 224.727 39.2042C223.926 39.8375 223.712 41.5788 225.482 41.1318Z" fill="#1F435E"/>
<path d="M237.792 57.4093C237.713 57.4107 237.635 57.388 237.568 57.3441C236.825 56.8613 235.987 56.5438 235.11 56.4129C234.996 56.4105 234.887 56.3633 234.807 56.2815C234.727 56.1996 234.682 56.0897 234.682 55.9752C234.682 55.919 234.693 55.8633 234.714 55.8113C234.736 55.7593 234.767 55.7121 234.807 55.6723C234.847 55.6326 234.894 55.601 234.946 55.5795C234.998 55.558 235.054 55.5469 235.11 55.5469C236.142 55.6696 237.135 56.0195 238.015 56.5712C238.099 56.6184 238.164 56.692 238.2 56.7804C238.237 56.8688 238.243 56.9669 238.217 57.059C238.191 57.1511 238.135 57.232 238.058 57.2887C237.981 57.3454 237.888 57.3748 237.792 57.372V57.4093Z" fill="#DDA450"/>
<path d="M247.448 213.842C247.367 213.842 247.288 213.819 247.219 213.776C247.149 213.734 247.094 213.672 247.057 213.6C247.032 213.549 247.017 213.494 247.013 213.437C247.009 213.381 247.016 213.324 247.034 213.27C247.053 213.217 247.081 213.167 247.119 213.124C247.156 213.082 247.202 213.047 247.253 213.022C257.235 207.947 282.285 195.385 299.121 188.429C299.223 188.401 299.333 188.411 299.428 188.458C299.524 188.504 299.6 188.584 299.641 188.682C299.682 188.781 299.686 188.89 299.652 188.991C299.618 189.092 299.548 189.177 299.456 189.23C282.648 196.168 257.626 208.72 247.644 213.795C247.583 213.824 247.516 213.84 247.448 213.842Z" fill="white"/>
<path d="M293.096 191.838C292.983 191.838 292.875 191.794 292.793 191.716C292.712 191.638 292.663 191.531 292.659 191.419C292.659 191.055 290.955 154.413 284.203 135.779C284.175 135.674 284.187 135.561 284.238 135.464C284.289 135.367 284.374 135.292 284.477 135.255C284.579 135.218 284.693 135.22 284.794 135.262C284.895 135.304 284.976 135.382 285.023 135.481C291.811 154.245 293.506 191.009 293.525 191.353C293.53 191.468 293.49 191.58 293.413 191.665C293.336 191.751 293.229 191.803 293.115 191.81L293.096 191.838Z" fill="white"/>
<path d="M215.75 148.639C215.638 148.642 215.53 148.6 215.448 148.524C215.366 148.447 215.317 148.341 215.313 148.229C214.964 141.328 213.995 134.471 212.417 127.743C212.403 127.688 212.4 127.631 212.408 127.575C212.417 127.518 212.436 127.465 212.466 127.416C212.495 127.368 212.534 127.325 212.58 127.292C212.626 127.259 212.678 127.235 212.733 127.222C212.788 127.206 212.845 127.202 212.901 127.209C212.957 127.217 213.011 127.235 213.06 127.264C213.108 127.293 213.151 127.331 213.184 127.376C213.218 127.422 213.242 127.474 213.255 127.529C214.846 134.321 215.825 141.243 216.179 148.211C216.182 148.268 216.175 148.325 216.156 148.379C216.137 148.433 216.108 148.483 216.07 148.525C216.032 148.568 215.985 148.602 215.934 148.627C215.882 148.651 215.826 148.665 215.769 148.667L215.75 148.639Z" fill="white"/>
<path d="M191.623 256.882C191.083 256.882 190.617 256.882 190.245 256.826C183.16 255.993 176.279 253.915 169.916 250.69C169.868 250.662 169.825 250.624 169.79 250.579C169.756 250.535 169.731 250.484 169.716 250.429C169.701 250.375 169.697 250.318 169.705 250.262C169.712 250.206 169.73 250.152 169.758 250.103C169.786 250.054 169.824 250.011 169.868 249.977C169.913 249.942 169.964 249.917 170.019 249.902C170.073 249.888 170.13 249.884 170.186 249.891C170.242 249.898 170.296 249.917 170.345 249.945C176.601 253.107 183.366 255.143 190.328 255.96C193.122 256.249 201.037 255.42 203.998 254.368C204.052 254.349 204.108 254.34 204.165 254.343C204.221 254.346 204.276 254.36 204.327 254.384C204.379 254.408 204.424 254.442 204.462 254.484C204.5 254.526 204.529 254.575 204.548 254.629C204.587 254.737 204.581 254.857 204.533 254.962C204.484 255.066 204.396 255.148 204.287 255.187C201.652 256.091 195.152 256.882 191.623 256.882Z" fill="#DDA450"/>
<path d="M192.982 265.747C191.809 265.747 190.636 265.747 189.5 265.626C184.956 265.282 181.622 264.695 179.573 263.764C179.469 263.717 179.388 263.631 179.346 263.525C179.304 263.419 179.306 263.301 179.35 263.196C179.371 263.143 179.403 263.094 179.443 263.054C179.484 263.014 179.532 262.982 179.585 262.961C179.639 262.94 179.696 262.93 179.753 262.932C179.81 262.934 179.866 262.948 179.918 262.972C181.873 263.82 185.123 264.425 189.565 264.76C197.527 265.356 207.072 263.531 207.165 263.512C207.278 263.49 207.396 263.514 207.492 263.579C207.588 263.644 207.654 263.743 207.677 263.857C207.688 263.913 207.687 263.97 207.676 264.025C207.664 264.081 207.642 264.134 207.61 264.18C207.578 264.227 207.537 264.267 207.489 264.298C207.441 264.329 207.388 264.35 207.332 264.36C202.596 265.221 197.796 265.686 192.982 265.747Z" fill="#DDA450"/>
<path d="M198.151 272.172C195.839 272.19 193.534 271.921 191.288 271.372C191.233 271.358 191.181 271.333 191.136 271.299C191.09 271.265 191.052 271.222 191.023 271.173C190.994 271.124 190.975 271.07 190.967 271.014C190.959 270.958 190.962 270.9 190.976 270.845C190.99 270.79 191.015 270.739 191.049 270.693C191.083 270.648 191.125 270.609 191.174 270.581C191.223 270.552 191.277 270.532 191.333 270.524C191.39 270.516 191.447 270.519 191.502 270.534C200.442 272.815 210.797 269.314 210.899 269.276C210.953 269.257 211.011 269.249 211.069 269.252C211.126 269.256 211.183 269.27 211.234 269.295C211.286 269.32 211.333 269.355 211.371 269.399C211.409 269.442 211.439 269.492 211.458 269.546C211.493 269.655 211.485 269.774 211.435 269.876C211.384 269.979 211.296 270.058 211.188 270.096C206.967 271.421 202.574 272.12 198.151 272.172Z" fill="#DDA450"/>
<path d="M210.498 250.28H210.359C209.811 250.24 209.28 250.071 208.811 249.786C208.341 249.501 207.946 249.109 207.658 248.641C207.418 248.281 207.329 247.84 207.411 247.415C207.493 246.99 207.739 246.614 208.096 246.369C208.735 245.832 209.533 245.522 210.367 245.486C211.201 245.451 212.023 245.693 212.705 246.173C213.357 246.751 213.869 247.775 212.612 249.358C212.353 249.662 212.028 249.904 211.662 250.063C211.295 250.223 210.898 250.297 210.498 250.28ZM210.629 246.322C209.9 246.321 209.192 246.563 208.617 247.011C208.522 247.067 208.439 247.141 208.373 247.229C208.308 247.318 208.261 247.419 208.236 247.526C208.21 247.633 208.207 247.744 208.226 247.853C208.246 247.961 208.287 248.065 208.347 248.157C208.564 248.514 208.863 248.815 209.219 249.033C209.576 249.252 209.979 249.383 210.396 249.414C210.676 249.436 210.958 249.392 211.219 249.285C211.479 249.178 211.711 249.012 211.895 248.799C212.78 247.673 212.491 247.16 212.091 246.807C211.679 246.472 211.159 246.3 210.629 246.322Z" fill="#DDA450"/>
<path d="M212.659 258.54C212.157 258.534 211.665 258.396 211.234 258.139C210.746 257.909 210.367 257.496 210.179 256.989C209.991 256.483 210.009 255.923 210.228 255.429C210.483 254.923 210.925 254.536 211.461 254.351C211.997 254.167 212.584 254.2 213.097 254.442C213.458 254.542 213.794 254.717 214.083 254.956C214.372 255.196 214.607 255.493 214.773 255.83C214.861 256.095 214.888 256.377 214.853 256.654C214.817 256.931 214.72 257.197 214.568 257.432C214.435 257.681 214.252 257.9 214.031 258.076C213.81 258.252 213.555 258.382 213.283 258.456C213.079 258.512 212.87 258.54 212.659 258.54ZM212.128 255.159C211.898 255.15 211.67 255.207 211.471 255.325C211.273 255.442 211.113 255.614 211.011 255.821C210.948 255.968 210.916 256.127 210.916 256.288C210.915 256.448 210.947 256.607 211.008 256.755C211.07 256.903 211.16 257.038 211.274 257.151C211.388 257.264 211.523 257.353 211.672 257.413C212.082 257.67 212.577 257.757 213.05 257.655C213.209 257.609 213.358 257.532 213.488 257.428C213.617 257.324 213.725 257.195 213.804 257.05C213.899 256.917 213.962 256.763 213.988 256.602C214.014 256.44 214.002 256.275 213.953 256.119C213.827 255.904 213.659 255.716 213.459 255.568C213.259 255.419 213.031 255.312 212.789 255.253C212.577 255.18 212.352 255.148 212.128 255.159Z" fill="#DDA450"/>
<path d="M215.229 265.766C214.795 265.774 214.363 265.691 213.962 265.524C213.617 265.368 213.335 265.097 213.166 264.758C212.996 264.419 212.948 264.031 213.031 263.661C213.227 262.954 213.962 262.246 215.546 262.423H215.769C216.57 262.507 217.482 262.6 217.631 263.615C217.695 263.917 217.672 264.232 217.565 264.522C217.458 264.812 217.271 265.065 217.026 265.254C216.499 265.615 215.868 265.795 215.229 265.766ZM215.061 263.224C214.391 263.224 213.953 263.447 213.841 263.847C213.805 264.026 213.832 264.211 213.917 264.373C214.002 264.534 214.139 264.661 214.307 264.732C214.66 264.868 215.039 264.923 215.417 264.892C215.794 264.861 216.159 264.746 216.486 264.555C216.608 264.463 216.7 264.337 216.752 264.193C216.803 264.049 216.811 263.894 216.775 263.745C216.719 263.438 216.542 263.363 215.657 263.27H215.424L215.061 263.224Z" fill="#DDA450"/>
<path d="M218.134 272.089C217.622 272.117 217.109 272.038 216.628 271.859C216.148 271.679 215.709 271.403 215.341 271.046C215.228 270.92 215.16 270.761 215.147 270.593C215.133 270.425 215.175 270.257 215.266 270.115C215.694 269.444 217.259 269.248 218.367 269.509C219.298 269.733 219.848 270.236 219.913 270.943C219.932 271.16 219.874 271.376 219.75 271.555C219.625 271.734 219.443 271.863 219.233 271.921C218.88 272.045 218.508 272.102 218.134 272.089ZM217.352 270.226C216.877 270.185 216.4 270.295 215.992 270.543C216.671 271.019 217.494 271.246 218.32 271.185C218.814 271.185 219.01 271.036 219.047 270.99C219.047 270.608 218.563 270.422 218.199 270.329C217.921 270.272 217.636 270.25 217.352 270.264V270.226Z" fill="#DDA450"/>
<path d="M360.124 191.437C360.627 234.98 265.346 262.684 243.621 262.684C221.896 262.684 216.905 239.534 216.551 234.114C216.123 227.596 243.686 215.229 243.686 215.229C243.686 215.229 247.309 221.99 277.666 221.99C308.023 221.99 360.124 191.437 360.124 191.437Z" fill="#EDBF56"/>
<path d="M199.045 243.985C198.962 243.982 198.881 243.956 198.812 243.91C198.743 243.864 198.688 243.8 198.654 243.724C198.629 243.672 198.616 243.616 198.614 243.559C198.612 243.502 198.622 243.445 198.643 243.392C198.663 243.339 198.695 243.29 198.735 243.25C198.776 243.209 198.824 243.177 198.877 243.156C200.698 242.262 202.45 241.235 204.12 240.083C204.215 240.018 204.332 239.994 204.445 240.015C204.559 240.036 204.659 240.1 204.725 240.195C204.758 240.242 204.782 240.295 204.794 240.351C204.807 240.407 204.808 240.465 204.797 240.521C204.787 240.578 204.765 240.631 204.734 240.679C204.702 240.727 204.661 240.768 204.613 240.8C202.896 241.981 201.094 243.033 199.222 243.948C199.166 243.974 199.106 243.987 199.045 243.985Z" fill="#DDA450"/>
<defs>
<linearGradient id="paint0_linear" x1="234.741" y1="185.537" x2="266.281" y2="188.06" gradientUnits="userSpaceOnUse">
<stop stop-color="#00BCD4"/>
<stop offset="1" stop-color="#00BCD4"/>
</linearGradient>
<linearGradient id="paint1_linear" x1="24571.9" y1="-4533.32" x2="51734.2" y2="-4533.32" gradientUnits="userSpaceOnUse">
<stop stop-color="#00BCD4"/>
<stop offset="1" stop-color="#00BCD4"/>
</linearGradient>
</defs>
</svg>
