<svg id="Layer_1" data-name="Layer 1" xmlns="http://www.w3.org/2000/svg" viewBox="0 0 302.19 64.76"><defs><style>.cls-1{fill:#057fff;}</style></defs><title>logo_skygate</title><rect class="cls-1" x="270.83" width="31.36" height="62.72"/><path class="cls-1" d="M0,38.29H8c.59,3.76,4.21,5.46,8.34,5.46,3.39,0,6.27-.89,6.27-4,0-2.59-2.29-3.4-4.8-4l-7.22-1.84C5.53,32.69.88,29.88.88,22.58c0-7.52,6.05-11.2,13.8-11.2,8.18,0,13.86,3.68,14.6,12.16H21.16c-.59-3.32-3.46-4.72-7-4.72-2.36,0-5.46.89-5.46,3.91,0,2.29,2.21,3,4.28,3.54L20,28c6.94,1.77,10.4,4.72,10.4,12-.07,7.52-5.9,11.21-14.16,11.21C7.45,51.2.44,47,0,38.29Z"/><path class="cls-1" d="M45.94,27.89,60.18,12.41h9.36L55.82,27.3,71.61,50.46h-9l-12-17.55-4.72,5.16V50.46H38.2V1.31h7.74Z"/><path class="cls-1" d="M90.12,59.23C89,62.41,86.28,64,81.71,64h-4V56.58h1.55c3.76,0,3.9-.66,5.16-3.84l1-2.8L71.9,12.41h8l9.51,27.06L99,12.41h8Z"/><path class="cls-1" d="M134.73,48.84V44.63c-1.11,2.22-4.87,4.35-8.85,4.35-6.56,0-15.12-4-15.12-15.78v-6c0-11.73,8.56-15.78,15.12-15.78,4,0,7.74,2.13,8.85,4.35V12.41h7.74V49c0,12.54-9.21,15.78-15.85,15.78-6.27,0-14.68-2.87-15.71-13.56h7.82c.81,4.13,3.83,6.12,7.89,6.12C131.41,57.32,134.73,54.59,134.73,48.84ZM118.51,33.06c0,5.75,3.32,8.4,8.11,8.4s8.11-2.65,8.11-8.4V27.3c0-5.75-3.32-8.4-8.11-8.4s-8.11,2.65-8.11,8.4Z"/><path class="cls-1" d="M159.44,24.21h-7.89c1.32-10.11,9.51-12.83,15.63-12.83,6.64,0,15.85,3.24,15.85,15.78v23.3h-7.74V46.85c-2.43,2.94-6.34,4.35-11.36,4.35-6.93,0-13-3.47-13-11.29,0-4.35,1.91-9.44,8.25-11.43,4.58-1.4,9.59-1.77,16-2.21V26.2c-.37-4.94-3.54-7.38-8-7.38C163.34,18.82,160.47,20.59,159.44,24.21Zm15.85,11.06V33.13c-6.78.44-11.95.88-14.75,2.58a3.84,3.84,0,0,0-1.84,3.54c0,3.1,2.36,4.5,6.49,4.5C169.61,43.75,175.29,42.35,175.29,35.27Z"/><path class="cls-1" d="M204.05,39.4c0,2.8-.58,3.61,2.45,3.61h10.93v7.45H205.38c-6.34,0-9.07-3.1-9.07-9.07V19.71h-8v-7.3h8V3.78h7.74v8.63h13.38v7.3H204.05Z"/><path class="cls-1" d="M246.86,38.44h7.89c-1.32,10.1-9.51,12.83-15.63,12.83-6.64,0-15.85-3.24-15.85-15.78V27.23c0-12.54,9.21-15.78,15.85-15.78S255,14.69,255,27.23v6.86H231v1.25c0,5.75,3.32,8.48,8.11,8.48C243,43.82,245.83,42.05,246.86,38.44ZM231,27.16v.07h16.22v-.07c-.07-5.53-3.39-8.26-8.11-8.26S231,21.63,231,27.16Z"/></svg>