<svg width="499" height="325" viewBox="0 0 499 325" fill="none" xmlns="http://www.w3.org/2000/svg">
<path d="M391.456 106.456C265.103 39.7295 57.1909 27.0418 10.2215 133.668C-23.736 210.644 34.3622 277.216 147.981 278.991C262.078 280.828 334.654 279.608 387.798 279.608C482.462 279.608 578.114 204.933 391.456 106.456Z" fill="white"/>
<path d="M404.732 224.335C404.528 224.245 404.351 224.104 404.218 223.926C404.086 223.747 404.002 223.537 403.975 223.316C401.891 205.025 408.714 194.205 417.28 197.261C427.483 200.889 422.189 210.505 422.189 210.505C422.189 210.505 426.603 207.125 431.45 211.601C436.297 216.077 432.345 224.736 422.575 226.419C416.547 227.289 410.397 226.57 404.732 224.335Z" fill="#AA7BA5"/>
<path d="M301.59 162.748C301.406 162.967 301.16 163.126 300.885 163.203C300.61 163.28 300.317 163.272 300.046 163.18C275.35 156.451 263.002 142.358 269.33 133.174C276.909 122.231 288.161 133.807 288.161 133.807C288.161 133.807 284.905 126.553 292.128 122.755C299.352 118.958 309.709 128.358 309.261 141.463C308.888 149.165 306.216 156.579 301.59 162.748Z" fill="#AA7BA5"/>
<path d="M183.263 101.825C183.03 101.797 182.794 101.841 182.587 101.951C182.38 102.062 182.212 102.233 182.106 102.443C171.301 120.487 172.088 135.86 181.072 137.635C191.768 139.75 191.876 126.537 191.876 126.537C192.48 128.228 193.718 129.618 195.329 130.41C196.94 131.203 198.797 131.336 200.505 130.782C206.926 128.914 207.667 117.477 199.949 110.006C195.334 105.667 189.52 102.816 183.263 101.825Z" fill="#AA7BA5"/>
<path d="M294.336 133.992C294.587 133.949 294.82 133.832 295.004 133.656C295.188 133.48 295.316 133.253 295.37 133.005C301.344 111.164 296.188 95.3735 286.341 96.099C274.61 96.9633 278.361 110.732 278.361 110.732C277.249 109.146 275.565 108.055 273.664 107.689C271.763 107.323 269.793 107.711 268.173 108.771C261.999 112.568 264.546 124.685 274.718 130.226C280.736 133.409 287.567 134.721 294.336 133.992Z" fill="#AA7BA5"/>
<path d="M368.516 164.816C368.334 165.037 368.088 165.197 367.812 165.274C367.536 165.352 367.243 165.343 366.972 165.249C342.523 158.596 330.237 144.658 336.55 135.567C344.036 124.762 355.165 136.2 355.165 136.2C355.165 136.2 351.939 129.022 359.085 125.271C366.232 121.521 376.481 130.813 376.064 143.794C375.72 151.401 373.09 158.728 368.516 164.816Z" fill="#AA7BA5"/>
<path d="M290.926 124.978C290.96 124.624 291.098 124.289 291.323 124.014C291.549 123.739 291.851 123.537 292.191 123.435C322.336 112.445 345.227 117.863 345.35 131.862C345.505 148.517 329.776 145.631 329.776 145.631C329.776 145.631 334.221 149.891 329.575 158.998C324.929 168.104 307.549 166.021 298.504 152.299C293.303 144.155 290.663 134.638 290.926 124.978Z" fill="#AA7BA5"/>
<path d="M200.736 120.054C200.536 120.178 200.38 120.36 200.286 120.575C200.192 120.79 200.166 121.028 200.211 121.258C202.727 142.096 212.667 153.842 220.863 149.767C230.618 144.921 223.796 135.073 223.796 135.073C223.796 135.073 228.087 137.928 232.023 132.526C235.959 127.124 229.569 117.616 218.887 116.412C212.609 115.784 206.286 117.053 200.736 120.054Z" fill="#AA7BA5"/>
<path d="M206.478 141.371C206.279 141.495 206.122 141.676 206.026 141.891C205.929 142.105 205.899 142.343 205.938 142.574C208.454 163.412 218.394 175.158 226.606 171.083C236.361 166.237 228.334 155.741 228.334 155.741C229.843 156.71 231.669 157.053 233.427 156.699C235.184 156.344 236.735 155.32 237.75 153.842C241.686 148.44 235.311 138.932 224.63 137.728C218.351 137.104 212.03 138.373 206.478 141.371Z" fill="#D89ACC"/>
<path d="M331.841 132.696C331.655 132.912 331.409 133.068 331.135 133.144C330.86 133.221 330.569 133.216 330.298 133.128C305.602 126.383 293.161 112.291 299.536 103.107C307.114 92.1784 318.382 103.739 318.382 103.739C318.382 103.739 315.11 96.4849 322.333 92.6878C329.557 88.8907 339.93 98.2908 339.482 111.395C339.121 119.099 336.46 126.519 331.841 132.696Z" fill="#AA7BA5"/>
<path d="M381.39 147.112C381.237 147.288 381.035 147.415 380.81 147.478C380.586 147.541 380.347 147.537 380.125 147.467C359.874 141.957 349.702 130.396 354.919 122.879C361.093 113.927 370.354 123.404 370.354 123.404C369.612 121.768 369.535 119.908 370.14 118.217C370.745 116.526 371.985 115.137 373.596 114.343C379.507 111.256 387.997 118.974 387.626 129.671C387.342 135.978 385.17 142.055 381.39 147.112Z" fill="#AA7BA5"/>
<path d="M178.2 149.073C178.405 148.956 178.569 148.78 178.671 148.568C178.773 148.355 178.808 148.117 178.771 147.884C176.826 126.985 167.21 114.976 158.906 118.804C149.012 123.435 156.76 134.085 156.76 134.085C155.266 133.067 153.432 132.674 151.652 132.991C149.872 133.309 148.287 134.311 147.237 135.783C143.146 141.077 149.274 150.755 159.909 152.252C166.187 153.055 172.561 151.947 178.2 149.073Z" fill="#AA7BA5"/>
<path d="M255.686 102.798C255.484 102.678 255.252 102.622 255.018 102.636C254.784 102.649 254.56 102.733 254.374 102.875C237.009 114.668 231.128 128.883 238.506 134.239C247.289 140.691 252.938 128.745 252.938 128.745C252.768 130.53 253.299 132.312 254.42 133.712C255.541 135.113 257.163 136.021 258.942 136.246C265.549 137.28 271.075 127.232 267.247 117.199C264.918 111.352 260.891 106.336 255.686 102.798Z" fill="#AA7BA5"/>
<path d="M136.85 123.234C136.557 123.186 136.283 123.06 136.055 122.87C135.827 122.68 135.654 122.433 135.554 122.154C127.28 99.4946 132.729 84.5379 144.815 86.0814C156.9 87.625 151.56 101.162 151.56 101.162C151.56 101.162 159.957 95.2191 167.597 99.5255C175.237 103.832 172.737 115.979 160.62 120.857C153.034 123.686 144.846 124.505 136.85 123.234Z" fill="#D89ACC"/>
<path d="M198.59 152.206C198.399 152.417 198.156 152.574 197.885 152.664C197.615 152.753 197.326 152.771 197.047 152.715C173.477 147.39 163.83 134.702 171.64 125.441C179.45 116.18 187.971 127.942 187.971 127.942C187.971 127.942 187.523 117.662 195.287 113.572C203.051 109.481 211.895 118.202 209.441 130.998C207.702 138.881 203.965 146.184 198.59 152.206Z" fill="#D89ACC"/>
<path d="M328.446 123.666C328.401 123.943 328.438 124.227 328.553 124.482C328.668 124.737 328.857 124.953 329.095 125.102C349.407 139.395 367.683 139.966 370.523 129.532C374.011 117.183 358.406 115.841 358.406 115.841C358.406 115.841 365.846 113.803 364.21 106.055C362.574 98.3061 349.16 96.3767 339.637 104.82C334.112 109.846 330.215 116.409 328.446 123.666Z" fill="#D89ACC"/>
<path d="M295.895 132.588C271.369 116.952 258.558 115.516 254.452 121.459C247.954 130.905 260.719 135.073 260.719 135.073C260.719 135.073 250.207 140.259 255.409 148.718C259.098 154.706 269.655 155.88 279.642 147.498C286.387 141.834 295.895 132.588 295.895 132.588Z" fill="#D89ACC"/>
<path d="M243.447 108.926C243.432 108.838 243.386 108.759 243.318 108.703C243.25 108.646 243.165 108.616 243.076 108.617C218.519 108.339 208.686 117.677 211.496 124.608C214.305 131.538 228.783 124.608 228.783 124.608C228.783 124.608 223.242 135.135 230.929 137.913C238.97 140.83 242.551 135.166 243.971 130.195C245.283 125.503 243.709 111.21 243.447 108.926Z" fill="#D89ACC"/>
<path d="M378.766 161.22C378.925 161.393 379.133 161.514 379.361 161.566C379.59 161.618 379.83 161.6 380.048 161.513C400.113 155.231 409.791 143.315 404.281 135.999C397.736 127.278 388.846 137.11 388.846 137.11C389.521 135.447 389.524 133.587 388.853 131.922C388.182 130.257 386.889 128.918 385.249 128.189C379.214 125.302 371.033 133.313 371.805 144.041C372.348 150.336 374.774 156.322 378.766 161.22Z" fill="#D89ACC"/>
<path d="M289.581 115.439C289.499 115.405 289.432 115.343 289.393 115.263C289.353 115.184 289.343 115.093 289.365 115.007C293.579 92.5027 298.178 87.764 306.884 90.6504C314.262 93.1046 308.227 104.913 308.227 104.913C308.227 104.913 319.757 102.042 320.575 110.145C321.501 118.65 315.157 120.78 309.955 120.95C305.217 121.15 291.726 116.227 289.581 115.439Z" fill="#D89ACC"/>
<path d="M338.466 170.744C338.286 170.896 338.065 170.99 337.831 171.015C337.597 171.04 337.361 170.994 337.154 170.883C318.045 162.223 309.833 149.273 316.193 142.605C323.741 134.764 331.335 145.584 331.335 145.584C330.862 143.853 331.081 142.006 331.945 140.434C332.809 138.861 334.251 137.686 335.965 137.157C342.309 135.027 349.456 143.979 347.387 154.521C346.093 160.696 342.987 166.344 338.466 170.744Z" fill="#D89ACC"/>
<path d="M160.187 134.409C159.993 134.279 159.764 134.209 159.531 134.209C159.297 134.209 159.068 134.279 158.875 134.409C141.51 146.279 135.629 160.479 143.007 165.913C151.79 172.365 157.439 160.418 157.439 160.418C157.268 162.205 157.799 163.989 158.92 165.391C160.04 166.794 161.663 167.706 163.443 167.935C170.05 168.953 175.576 158.92 171.748 148.872C169.425 143.005 165.398 137.968 160.187 134.409Z" fill="#D89ACC"/>
<path d="M251.981 156.991C251.909 157.08 251.807 157.141 251.695 157.164C251.582 157.186 251.465 157.169 251.364 157.114C223.58 141.895 220.215 135.119 226.822 124.839C232.054 116.69 245.344 130.149 245.344 130.149C245.344 130.149 245.792 114.822 256.149 116.566C266.953 118.387 267.478 127.016 265.888 133.545C264.545 139.549 253.741 154.598 251.981 156.991Z" fill="#E2C7DF"/>
<path d="M304.986 143.408C305.218 143.443 305.456 143.407 305.668 143.305C305.88 143.203 306.056 143.04 306.174 142.837C317.612 125.241 317.535 109.867 308.629 107.722C298.04 105.159 297.469 118.372 297.469 118.372C296.94 116.651 295.76 115.204 294.18 114.339C292.6 113.474 290.746 113.26 289.01 113.741C282.528 115.285 281.293 126.738 288.733 134.517C293.135 139.045 298.799 142.143 304.986 143.408Z" fill="#E2C7DF"/>
<path d="M205.243 100.915C205.243 101.285 205.598 101.548 206.122 101.656C227.145 105.916 241.839 104.882 243.692 93.5522C245.096 84.9702 229.923 88.1653 229.923 88.1653C229.923 88.1653 236.098 84.9239 232.841 80.4477C229.584 75.9715 217.93 75.8171 210.876 86.1124C206.107 93.1817 205.181 99.0162 205.243 100.915Z" fill="#E2C7DF"/>
<path d="M270.288 101.054C270.357 101.091 270.437 101.103 270.514 101.086C270.591 101.069 270.658 101.024 270.705 100.961C284.303 83.8587 283.053 71.8501 276.694 70.0905C270.334 68.3309 267.294 82.238 267.294 82.238C267.294 82.238 263.003 72.5756 256.829 76.4653C250.392 80.5247 252.414 86.1277 255.162 89.863C257.647 93.3051 268.544 99.9885 270.288 101.054Z" fill="#D89ACC"/>
<path d="M322.675 64.6111C322.405 64.542 322.162 64.3931 321.977 64.1839C321.793 63.9747 321.676 63.7148 321.641 63.438C317.119 39.0041 324.188 22.226 334.9 23.9239C347.634 25.9459 342.278 40.6402 342.278 40.6402C342.278 40.6402 347.233 34.7285 353.592 39.4517C359.951 44.1749 356.108 57.1713 344.47 62.2958C337.599 65.2267 330.008 66.0331 322.675 64.6111Z" fill="#D89ACC"/>
<path d="M389.033 152.901C403.049 160.417 429.906 185.129 432.592 187.228C435.277 189.328 430.678 189.189 420.243 189.899C409.809 190.609 386.687 192.137 384.912 191.627C383.137 191.118 389.033 152.901 389.033 152.901Z" fill="url(#paint0_linear)"/>
<path opacity="0.5" d="M389.033 152.901C403.049 160.417 429.906 185.129 432.592 187.228C435.277 189.328 430.678 189.189 420.243 189.899C409.809 190.609 386.687 192.137 384.912 191.627C383.137 191.118 389.033 152.901 389.033 152.901Z" fill="#0A102B"/>
<path d="M148.69 148.131C146.019 191.647 145.787 235.279 147.996 278.821C148.412 283.035 378.891 280.365 386.64 279.593C387.087 279.593 388.847 278.883 389.171 276.012C391.579 254.495 389.032 152.885 389.032 152.885L148.69 148.131Z" fill="url(#paint1_linear)"/>
<path d="M146.128 149.119C111.739 178.245 97.7079 190.624 98.9119 192.446C101.397 196.212 238.014 195.888 252.415 196.088C266.816 196.289 277.605 197.956 279.89 196.088C282.174 194.221 323.788 152.762 324.745 151.619C325.702 150.477 150.11 145.754 146.128 149.119Z" fill="#6CD5DD"/>
<path opacity="0.16" d="M324.745 151.635C323.557 176.501 320.608 280.287 321.658 280.612C322.708 280.936 381.377 279.994 386.146 279.608C388.986 279.377 388.647 276.398 389.233 274.268C390.777 267.661 389.496 152.206 388.986 152.901C388.986 152.947 324.745 151.635 324.745 151.635Z" fill="#0A102B"/>
<path d="M262.449 184.713C262.603 184.833 262.723 184.992 262.796 185.174C262.869 185.355 262.893 185.553 262.865 185.747C259.778 208.128 247.893 219.272 239.589 211.601C230.884 203.543 240.623 196.289 240.623 196.289C240.623 196.289 231.146 197.524 226.732 190.655C222.317 183.786 229.664 174.927 241.735 176.192C249.261 177.189 256.399 180.125 262.449 184.713Z" fill="#E2C7DF"/>
<path d="M93.6645 150.832C93.8445 150.708 93.9834 150.533 94.0631 150.33C94.1429 150.126 94.16 149.903 94.1121 149.69C90.8244 130.489 81.4089 120.564 74.0463 124.778C66.6837 128.991 75.4201 137.867 75.4201 137.867C75.4201 137.867 67.5327 135.505 64.1215 140.691C60.7103 145.877 67.0696 154.413 77.0253 155.046C82.8686 155.34 88.6654 153.872 93.6645 150.832Z" fill="#D89ACC"/>
<path d="M190.366 296.417C190.355 296.314 190.321 296.214 190.267 296.126C190.212 296.037 190.139 295.962 190.051 295.906C189.964 295.849 189.865 295.813 189.762 295.8C189.659 295.787 189.554 295.798 189.455 295.831C165.284 303.718 161.317 307.639 162.598 312.269C163.879 316.9 169.945 317.054 176.196 313.195C176.196 313.195 174.298 322.179 179.978 324.494C185.658 326.809 190.952 320.789 191.307 314.353C191.303 308.362 190.988 302.376 190.366 296.417Z" fill="#E2C7DF"/>
<path d="M58.4565 273.619C58.4978 273.724 58.5745 273.811 58.6733 273.864C58.7721 273.918 58.8866 273.935 58.9967 273.913C89.8672 267.013 99.4061 252.411 93.834 244.586C88.2619 236.76 72.2247 249.726 72.2247 249.726C72.2247 249.726 76.0527 234.908 65.603 233.688C54.6749 232.423 51.8502 240.573 51.557 247.271C51.2637 253.415 57.4532 270.841 58.4565 273.619Z" fill="#D89ACC"/>
<path d="M209.738 213.623C209.724 213.538 209.681 213.461 209.616 213.405C209.551 213.348 209.469 213.316 209.383 213.314C185.165 213.036 175.426 222.236 178.25 229.073C181.075 235.911 195.229 229.073 195.229 229.073C195.229 229.073 189.765 239.461 197.344 242.193C205.278 245.064 208.812 239.492 210.217 234.476C211.544 229.938 210.001 215.876 209.738 213.623Z" fill="#D89ACC"/>
<path d="M179.654 172.735C179.844 172.945 180.093 173.093 180.368 173.159C180.644 173.225 180.933 173.206 181.198 173.105C204.675 165.712 216.097 151.727 209.629 143.145C201.912 132.927 191.57 144.442 191.57 144.442C191.57 144.442 194.657 136.91 187.356 133.977C177.262 129.918 170.671 140.012 171.581 152.499C172.183 159.901 174.996 166.951 179.654 172.735Z" fill="#E2C7DF"/>
<path d="M423.054 146.973C422.881 146.861 422.747 146.699 422.667 146.509C422.587 146.319 422.566 146.11 422.606 145.908C425.215 127.849 433.797 118.326 440.82 122.092C447.843 125.858 439.863 134.44 439.863 134.44C439.863 134.44 447.194 132.032 450.497 136.817C453.801 141.602 448.074 149.736 438.767 150.57C433.288 150.96 427.817 149.707 423.054 146.973Z" fill="#E2C7DF"/>
<path d="M252.522 43.6502C252.724 43.6972 252.935 43.6843 253.13 43.613C253.325 43.5417 253.494 43.4152 253.618 43.2489C265.164 28.925 266.445 15.4655 258.882 12.8261C249.867 9.73902 248.185 21.1302 248.185 21.1302C247.871 19.5871 246.969 18.2268 245.67 17.3367C244.37 16.4466 242.776 16.0966 241.224 16.3607C235.42 17.1942 233.352 27.0265 239.14 34.4662C242.583 38.7955 247.244 41.9943 252.522 43.6502Z" fill="#E2C7DF"/>
<path d="M224.54 29.8665C224.617 29.8601 224.69 29.8276 224.746 29.7742C224.802 29.7209 224.839 29.65 224.849 29.5732C227.303 7.85586 219.925 -1.69854 213.52 0.246294C207.114 2.19113 211.976 15.5426 211.976 15.5426C211.976 15.5426 203.163 9.69265 200.014 16.2372C196.711 23.1059 201.387 26.7794 205.709 28.4927C209.707 30.0054 222.487 29.8819 224.54 29.8665Z" fill="#D89ACC"/>
<defs>
<linearGradient id="paint0_linear" x1="381.562" y1="170.276" x2="431.735" y2="184.387" gradientUnits="userSpaceOnUse">
<stop stop-color="#00BCD4"/>
<stop offset="1" stop-color="#00BCD4"/>
</linearGradient>
<linearGradient id="paint1_linear" x1="64590.6" y1="-21693" x2="106645" y2="-21693" gradientUnits="userSpaceOnUse">
<stop stop-color="#00BCD4"/>
<stop offset="1" stop-color="#00BCD4"/>
</linearGradient>
</defs>
</svg>
